<svg width="107" height="48" viewBox="0 0 107 48" fill="none" xmlns="http://www.w3.org/2000/svg">
<path d="M0 9C0 4.02944 4.02944 0 9 0H98C102.971 0 107 4.02944 107 9V26C107 30.9706 102.971 35 98 35H9C4.02944 35 0 30.9706 0 26V9Z" fill="white"/>
<path d="M16.8159 22.24C14.2079 22.24 12.6399 20.352 12.6399 17.68C12.6399 14.976 14.2479 13.12 16.8399 13.12C18.7279 13.12 20.1519 14.128 20.5839 15.752L18.9199 16.232C18.5919 15.264 17.7839 14.696 16.8159 14.696C15.2159 14.696 14.4159 15.896 14.4159 17.68C14.4159 19.464 15.2319 20.664 16.8159 20.664C17.8959 20.664 18.5439 20.144 18.8879 19.224L20.5839 19.624C20.0159 21.32 18.6719 22.24 16.8159 22.24Z" fill="#5F64E7"/>
<path d="M23.8776 22H22.2056V13.36H29.4136V22H27.7416V14.928H23.8776V22Z" fill="#5F64E7"/>
<path d="M35.0991 13.12C37.5071 13.12 38.6831 14.328 38.6831 16.84V22H37.0031V20.736C36.4191 21.728 35.4431 22.24 34.0991 22.24C32.3151 22.24 31.1711 21.24 31.1711 19.68C31.1711 17.944 32.4431 17.096 34.6271 16.824L37.0031 16.528C36.9791 15.208 36.3551 14.616 35.0831 14.616C33.9551 14.616 33.3071 15.04 33.0271 15.952L31.4831 15.544C31.9231 13.976 33.2031 13.12 35.0991 13.12ZM37.0031 17.792L34.8351 18.064C33.4351 18.232 32.8191 18.696 32.8191 19.552C32.8191 20.392 33.3871 20.824 34.4831 20.824C35.6831 20.824 36.5711 20.144 36.8431 19.16C37.0031 18.744 37.0031 18.232 37.0031 17.848V17.792Z" fill="#5F64E7"/>
<path d="M44.4565 22.24C41.8485 22.24 40.2805 20.352 40.2805 17.68C40.2805 14.976 41.8885 13.12 44.4805 13.12C46.3685 13.12 47.7925 14.128 48.2245 15.752L46.5605 16.232C46.2325 15.264 45.4245 14.696 44.4565 14.696C42.8565 14.696 42.0565 15.896 42.0565 17.68C42.0565 19.464 42.8725 20.664 44.4565 20.664C45.5365 20.664 46.1845 20.144 46.5285 19.224L48.2245 19.624C47.6565 21.32 46.3125 22.24 44.4565 22.24Z" fill="#5F64E7"/>
<path d="M55.4623 13.36H57.1343V22H55.4623V15.96L51.5183 22H49.8463V13.36H51.5183V19.4L55.4623 13.36Z" fill="#5F64E7"/>
<path d="M62.8899 22.248C60.4419 22.232 59.0739 20.544 58.9139 17.784C58.8659 17.08 58.8819 16.096 58.9859 15.232C59.1699 13.6 59.5619 12.312 60.7299 11.536C62.3139 10.488 64.2819 10.744 66.5059 10.248L66.6259 11.808C64.3539 12.304 62.9379 12.072 61.7539 12.752C60.9619 13.208 60.6579 13.872 60.5379 15.376C61.1779 14.384 62.1699 13.952 63.3299 13.952C65.5219 13.952 67.0339 15.616 67.0339 18.056C67.0339 20.6 65.3459 22.264 62.8899 22.248ZM62.9539 20.672C64.4339 20.672 65.2659 19.656 65.2659 18.12C65.2659 16.544 64.4339 15.544 63.0019 15.544C61.5219 15.544 60.6979 16.536 60.6979 18.12C60.6979 19.688 61.5379 20.672 62.9539 20.672Z" fill="#5F64E7"/>
<path d="M72.5438 22.24C69.9678 22.24 68.3118 20.368 68.3118 17.672C68.3118 14.976 69.9838 13.12 72.5438 13.12C75.1278 13.12 76.7838 14.984 76.7838 17.672C76.7838 20.384 75.1198 22.24 72.5438 22.24ZM72.5438 20.664C74.1438 20.664 75.0078 19.512 75.0078 17.672C75.0078 15.816 74.1438 14.696 72.5438 14.696C70.9278 14.696 70.0878 15.832 70.0878 17.672C70.0878 19.528 70.9598 20.664 72.5438 20.664Z" fill="#5F64E7"/>
<path d="M80.9098 19.12H79.3418V10.48H80.9098V19.12ZM80.9098 22H79.3418V20.376H80.9098V22Z" fill="#5F64E7"/>
<path d="M89.5671 15.128H87.7991V13.36H89.5671V15.128ZM89.5591 22H87.7911V20.232H89.5591V22Z" fill="#5F64E7"/>
<path d="M93.1931 24.984L91.9451 24.056C93.8171 21.832 94.6171 19.376 94.6171 16.72C94.6091 14 93.8011 11.592 91.9451 9.38399L93.1931 8.45599C94.4331 9.88799 95.3531 11.768 95.8091 13.696C96.0331 14.664 96.1451 15.608 96.1451 16.528V16.72V16.912C96.1451 18.76 95.6891 20.736 94.7931 22.552C94.3451 23.456 93.8091 24.272 93.1931 24.984Z" fill="#5F64E7"/>
<path d="M0 48V23L25 30.5V35H13C5.8203 35 0 40.8203 0 48Z" fill="white"/>
</svg>
