<svg width="57" height="57" viewBox="0 0 57 57" fill="none" xmlns="http://www.w3.org/2000/svg">
<path d="M15.5834 0.000244141H13.8059V1.77772H15.5834V0.000244141Z" fill="white"/>
<path d="M19.0346 0.000244141H17.2571V1.77772H19.0346V0.000244141Z" fill="white"/>
<path d="M27.6625 0.000244141H25.8851V1.77772H27.6625V0.000244141Z" fill="white"/>
<path d="M31.1148 0.000244141H29.3374V1.77772H31.1148V0.000244141Z" fill="white"/>
<path d="M32.8404 0.000244141H31.063V1.77772H32.8404V0.000244141Z" fill="white"/>
<path d="M36.2916 0.000244141H34.5142V1.77772H36.2916V0.000244141Z" fill="white"/>
<path d="M41.4685 0.000244141H39.691V1.77772H41.4685V0.000244141Z" fill="white"/>
<path d="M43.1941 0.000244141H41.4166V1.77772H43.1941V0.000244141Z" fill="white"/>
<path d="M15.5834 1.72583H13.8059V3.50331H15.5834V1.72583Z" fill="white"/>
<path d="M17.309 1.72583H15.5315V3.50331H17.309V1.72583Z" fill="white"/>
<path d="M20.7602 1.72583H18.9827V3.50331H20.7602V1.72583Z" fill="white"/>
<path d="M22.4863 1.72583H20.7088V3.50331H22.4863V1.72583Z" fill="white"/>
<path d="M24.2114 1.72583H22.4339V3.50331H24.2114V1.72583Z" fill="white"/>
<path d="M32.8404 1.72583H31.063V3.50331H32.8404V1.72583Z" fill="white"/>
<path d="M38.0167 1.72583H36.2393V3.50331H38.0167V1.72583Z" fill="white"/>
<path d="M43.1941 1.72583H41.4166V3.50331H43.1941V1.72583Z" fill="white"/>
<path d="M15.5827 3.45374H13.8053V5.23121H15.5827V3.45374Z" fill="white"/>
<path d="M17.3088 3.45374H15.5314V5.23121H17.3088V3.45374Z" fill="white"/>
<path d="M19.0344 3.45374H17.257V5.23121H19.0344V3.45374Z" fill="white"/>
<path d="M27.6629 3.45374H25.8854V5.23121H27.6629V3.45374Z" fill="white"/>
<path d="M29.3885 3.45374H27.611V5.23121H29.3885V3.45374Z" fill="white"/>
<path d="M32.8397 3.45374H31.0622V5.23121H32.8397V3.45374Z" fill="white"/>
<path d="M38.0175 3.45374H36.24V5.23121H38.0175V3.45374Z" fill="white"/>
<path d="M41.4692 3.45374H39.6917V5.23121H41.4692V3.45374Z" fill="white"/>
<path d="M43.1948 3.45374H41.4173V5.23121H43.1948V3.45374Z" fill="white"/>
<path d="M17.3088 5.17725H15.5314V6.95472H17.3088V5.17725Z" fill="white"/>
<path d="M19.0344 5.17725H17.257V6.95472H19.0344V5.17725Z" fill="white"/>
<path d="M22.4861 5.17725H20.7087V6.95472H22.4861V5.17725Z" fill="white"/>
<path d="M25.9368 5.17725H24.1593V6.95472H25.9368V5.17725Z" fill="white"/>
<path d="M29.389 5.17725H27.6115V6.95472H29.389V5.17725Z" fill="white"/>
<path d="M31.1146 5.17725H29.3371V6.95472H31.1146V5.17725Z" fill="white"/>
<path d="M36.2914 5.17725H34.5139V6.95472H36.2914V5.17725Z" fill="white"/>
<path d="M39.7431 5.17725H37.9656V6.95472H39.7431V5.17725Z" fill="white"/>
<path d="M41.4687 5.17725H39.6912V6.95472H41.4687V5.17725Z" fill="white"/>
<path d="M43.1943 5.17725H41.4168V6.95472H43.1943V5.17725Z" fill="white"/>
<path d="M17.3088 6.90491H15.5314V8.68239H17.3088V6.90491Z" fill="white"/>
<path d="M19.0344 6.90491H17.257V8.68239H19.0344V6.90491Z" fill="white"/>
<path d="M24.2112 6.90491H22.4337V8.68239H24.2112V6.90491Z" fill="white"/>
<path d="M31.1141 6.90491H29.3366V8.68239H31.1141V6.90491Z" fill="white"/>
<path d="M15.5827 8.63049H13.8053V10.408H15.5827V8.63049Z" fill="white"/>
<path d="M17.3088 8.63049H15.5314V10.408H17.3088V8.63049Z" fill="white"/>
<path d="M20.76 8.63049H18.9826V10.408H20.76V8.63049Z" fill="white"/>
<path d="M22.4856 8.63049H20.7081V10.408H22.4856V8.63049Z" fill="white"/>
<path d="M24.2112 8.63049H22.4337V10.408H24.2112V8.63049Z" fill="white"/>
<path d="M27.6629 8.63049H25.8854V10.408H27.6629V8.63049Z" fill="white"/>
<path d="M31.1141 8.63049H29.3366V10.408H31.1141V8.63049Z" fill="white"/>
<path d="M34.5653 8.63049H32.7878V10.408H34.5653V8.63049Z" fill="white"/>
<path d="M36.2919 8.63049H34.5144V10.408H36.2919V8.63049Z" fill="white"/>
<path d="M38.0175 8.63049H36.24V10.408H38.0175V8.63049Z" fill="white"/>
<path d="M41.4687 8.63049H39.6912V10.408H41.4687V8.63049Z" fill="white"/>
<path d="M43.1948 8.63049H41.4173V10.408H43.1948V8.63049Z" fill="white"/>
<path d="M15.5827 10.3561H13.8053V12.1336H15.5827V10.3561Z" fill="white"/>
<path d="M19.0344 10.3561H17.257V12.1336H19.0344V10.3561Z" fill="white"/>
<path d="M22.4861 10.3561H20.7087V12.1336H22.4861V10.3561Z" fill="white"/>
<path d="M25.9373 10.3561H24.1598V12.1336H25.9373V10.3561Z" fill="white"/>
<path d="M29.3885 10.3561H27.611V12.1336H29.3885V10.3561Z" fill="white"/>
<path d="M32.8397 10.3561H31.0622V12.1336H32.8397V10.3561Z" fill="white"/>
<path d="M36.2914 10.3561H34.5139V12.1336H36.2914V10.3561Z" fill="white"/>
<path d="M39.7431 10.3561H37.9656V12.1336H39.7431V10.3561Z" fill="white"/>
<path d="M43.1943 10.3561H41.4168V12.1336H43.1943V10.3561Z" fill="white"/>
<path d="M15.5827 12.0817H13.8053V13.8591H15.5827V12.0817Z" fill="white"/>
<path d="M19.0344 12.0817H17.257V13.8591H19.0344V12.0817Z" fill="white"/>
<path d="M20.76 12.0817H18.9826V13.8591H20.76V12.0817Z" fill="white"/>
<path d="M22.4856 12.0817H20.7081V13.8591H22.4856V12.0817Z" fill="white"/>
<path d="M27.6629 12.0817H25.8854V13.8591H27.6629V12.0817Z" fill="white"/>
<path d="M29.3885 12.0817H27.611V13.8591H29.3885V12.0817Z" fill="white"/>
<path d="M31.1141 12.0817H29.3366V13.8591H31.1141V12.0817Z" fill="white"/>
<path d="M32.8397 12.0817H31.0622V13.8591H32.8397V12.0817Z" fill="white"/>
<path d="M38.0175 12.0817H36.24V13.8591H38.0175V12.0817Z" fill="white"/>
<path d="M41.4692 12.0817H39.6917V13.8591H41.4692V12.0817Z" fill="white"/>
<path d="M5.22867 13.8073H3.45119V15.5847H5.22867V13.8073Z" fill="white"/>
<path d="M6.95426 13.8073H5.17678V15.5847H6.95426V13.8073Z" fill="white"/>
<path d="M8.68036 13.8073H6.90289V15.5847H8.68036V13.8073Z" fill="white"/>
<path d="M12.1316 13.8073H10.3541V15.5847H12.1316V13.8073Z" fill="white"/>
<path d="M15.5827 13.8073H13.8053V15.5847H15.5827V13.8073Z" fill="white"/>
<path d="M22.4861 13.8073H20.7087V15.5847H22.4861V13.8073Z" fill="white"/>
<path d="M29.3885 13.8073H27.611V15.5847H29.3885V13.8073Z" fill="white"/>
<path d="M32.8397 13.8073H31.0622V15.5847H32.8397V13.8073Z" fill="white"/>
<path d="M39.7431 13.8073H37.9656V15.5847H39.7431V13.8073Z" fill="white"/>
<path d="M41.4687 13.8073H39.6912V15.5847H41.4687V13.8073Z" fill="white"/>
<path d="M43.1943 13.8073H41.4168V15.5847H43.1943V13.8073Z" fill="white"/>
<path d="M44.9199 13.8073H43.1424V15.5847H44.9199V13.8073Z" fill="white"/>
<path d="M46.646 13.8073H44.8685V15.5847H46.646V13.8073Z" fill="white"/>
<path d="M48.3711 13.8073H46.5936V15.5847H48.3711V13.8073Z" fill="white"/>
<path d="M53.5489 13.8073H51.7714V15.5847H53.5489V13.8073Z" fill="white"/>
<path d="M55.2745 13.8073H53.497V15.5847H55.2745V13.8073Z" fill="white"/>
<path d="M57 13.8073H55.2226V15.5847H57V13.8073Z" fill="white"/>
<path d="M8.68036 15.533H6.90289V17.3104H8.68036V15.533Z" fill="white"/>
<path d="M10.406 15.533H8.62848V17.3104H10.406V15.533Z" fill="white"/>
<path d="M19.0344 15.533H17.257V17.3104H19.0344V15.533Z" fill="white"/>
<path d="M22.4861 15.533H20.7087V17.3104H22.4861V15.533Z" fill="white"/>
<path d="M27.6629 15.533H25.8854V17.3104H27.6629V15.533Z" fill="white"/>
<path d="M31.1141 15.533H29.3366V17.3104H31.1141V15.533Z" fill="white"/>
<path d="M32.8397 15.533H31.0622V17.3104H32.8397V15.533Z" fill="white"/>
<path d="M36.2914 15.533H34.5139V17.3104H36.2914V15.533Z" fill="white"/>
<path d="M38.017 15.533H36.2395V17.3104H38.017V15.533Z" fill="white"/>
<path d="M39.7431 15.533H37.9656V17.3104H39.7431V15.533Z" fill="white"/>
<path d="M41.4687 15.533H39.6912V17.3104H41.4687V15.533Z" fill="white"/>
<path d="M44.9199 15.533H43.1424V17.3104H44.9199V15.533Z" fill="white"/>
<path d="M46.646 15.533H44.8685V17.3104H46.646V15.533Z" fill="white"/>
<path d="M57 15.533H55.2226V17.3104H57V15.533Z" fill="white"/>
<path d="M3.50358 17.2595H1.7261V19.037H3.50358V17.2595Z" fill="white"/>
<path d="M5.22918 17.2595H3.4517V19.037H5.22918V17.2595Z" fill="white"/>
<path d="M8.68036 17.2595H6.90289V19.037H8.68036V17.2595Z" fill="white"/>
<path d="M12.1321 17.2595H10.3546V19.037H12.1321V17.2595Z" fill="white"/>
<path d="M17.3088 17.2595H15.5314V19.037H17.3088V17.2595Z" fill="white"/>
<path d="M19.0344 17.2595H17.257V19.037H19.0344V17.2595Z" fill="white"/>
<path d="M20.76 17.2595H18.9826V19.037H20.76V17.2595Z" fill="white"/>
<path d="M24.2117 17.2595H22.4342V19.037H24.2117V17.2595Z" fill="white"/>
<path d="M27.6629 17.2595H25.8854V19.037H27.6629V17.2595Z" fill="white"/>
<path d="M31.1146 17.2595H29.3371V19.037H31.1146V17.2595Z" fill="white"/>
<path d="M34.5663 17.2595H32.7888V19.037H34.5663V17.2595Z" fill="white"/>
<path d="M36.2919 17.2595H34.5144V19.037H36.2919V17.2595Z" fill="white"/>
<path d="M38.0175 17.2595H36.24V19.037H38.0175V17.2595Z" fill="white"/>
<path d="M44.9204 17.2595H43.1429V19.037H44.9204V17.2595Z" fill="white"/>
<path d="M48.3716 17.2595H46.5941V19.037H48.3716V17.2595Z" fill="white"/>
<path d="M53.5484 17.2595H51.7709V19.037H53.5484V17.2595Z" fill="white"/>
<path d="M1.77748 18.9841H0V20.7616H1.77748V18.9841Z" fill="white"/>
<path d="M3.50307 18.9841H1.72559V20.7616H3.50307V18.9841Z" fill="white"/>
<path d="M5.22867 18.9841H3.45119V20.7616H5.22867V18.9841Z" fill="white"/>
<path d="M10.406 18.9841H8.62848V20.7616H10.406V18.9841Z" fill="white"/>
<path d="M13.8571 18.9841H12.0797V20.7616H13.8571V18.9841Z" fill="white"/>
<path d="M15.5827 18.9841H13.8053V20.7616H15.5827V18.9841Z" fill="white"/>
<path d="M20.7605 18.9841H18.9831V20.7616H20.7605V18.9841Z" fill="white"/>
<path d="M22.4861 18.9841H20.7087V20.7616H22.4861V18.9841Z" fill="white"/>
<path d="M25.9373 18.9841H24.1598V20.7616H25.9373V18.9841Z" fill="white"/>
<path d="M31.1141 18.9841H29.3366V20.7616H31.1141V18.9841Z" fill="white"/>
<path d="M34.5653 18.9841H32.7878V20.7616H34.5653V18.9841Z" fill="white"/>
<path d="M38.0175 18.9841H36.24V20.7616H38.0175V18.9841Z" fill="white"/>
<path d="M39.7431 18.9841H37.9656V20.7616H39.7431V18.9841Z" fill="white"/>
<path d="M41.4687 18.9841H39.6912V20.7616H41.4687V18.9841Z" fill="white"/>
<path d="M43.1943 18.9841H41.4168V20.7616H43.1943V18.9841Z" fill="white"/>
<path d="M44.9204 18.9841H43.1429V20.7616H44.9204V18.9841Z" fill="white"/>
<path d="M51.8233 18.9841H50.0458V20.7616H51.8233V18.9841Z" fill="white"/>
<path d="M53.5489 18.9841H51.7714V20.7616H53.5489V18.9841Z" fill="white"/>
<path d="M1.77748 20.7107H0V22.4882H1.77748V20.7107Z" fill="white"/>
<path d="M6.95477 20.7107H5.17729V22.4882H6.95477V20.7107Z" fill="white"/>
<path d="M8.68036 20.7107H6.90289V22.4882H8.68036V20.7107Z" fill="white"/>
<path d="M10.406 20.7107H8.62848V22.4882H10.406V20.7107Z" fill="white"/>
<path d="M12.1321 20.7107H10.3546V22.4882H12.1321V20.7107Z" fill="white"/>
<path d="M17.3088 20.7107H15.5314V22.4882H17.3088V20.7107Z" fill="white"/>
<path d="M20.76 20.7107H18.9826V22.4882H20.76V20.7107Z" fill="white"/>
<path d="M24.2112 20.7107H22.4337V22.4882H24.2112V20.7107Z" fill="white"/>
<path d="M25.9373 20.7107H24.1598V22.4882H25.9373V20.7107Z" fill="white"/>
<path d="M29.3885 20.7107H27.611V22.4882H29.3885V20.7107Z" fill="white"/>
<path d="M31.1141 20.7107H29.3366V22.4882H31.1141V20.7107Z" fill="white"/>
<path d="M32.8402 20.7107H31.0627V22.4882H32.8402V20.7107Z" fill="white"/>
<path d="M36.2919 20.7107H34.5144V22.4882H36.2919V20.7107Z" fill="white"/>
<path d="M38.0175 20.7107H36.24V22.4882H38.0175V20.7107Z" fill="white"/>
<path d="M43.1948 20.7107H41.4173V22.4882H43.1948V20.7107Z" fill="white"/>
<path d="M48.3716 20.7107H46.5941V22.4882H48.3716V20.7107Z" fill="white"/>
<path d="M50.0972 20.7107H48.3197V22.4882H50.0972V20.7107Z" fill="white"/>
<path d="M51.8228 20.7107H50.0453V22.4882H51.8228V20.7107Z" fill="white"/>
<path d="M55.2739 20.7107H53.4965V22.4882H55.2739V20.7107Z" fill="white"/>
<path d="M5.22918 22.4363H3.4517V24.2138H5.22918V22.4363Z" fill="white"/>
<path d="M8.68036 22.4363H6.90289V24.2138H8.68036V22.4363Z" fill="white"/>
<path d="M10.406 22.4363H8.62848V24.2138H10.406V22.4363Z" fill="white"/>
<path d="M15.5832 22.4363H13.8058V24.2138H15.5832V22.4363Z" fill="white"/>
<path d="M17.3088 22.4363H15.5314V24.2138H17.3088V22.4363Z" fill="white"/>
<path d="M22.4856 22.4363H20.7081V24.2138H22.4856V22.4363Z" fill="white"/>
<path d="M24.2112 22.4363H22.4337V24.2138H24.2112V22.4363Z" fill="white"/>
<path d="M25.9373 22.4363H24.1598V24.2138H25.9373V22.4363Z" fill="white"/>
<path d="M34.5658 22.4363H32.7883V24.2138H34.5658V22.4363Z" fill="white"/>
<path d="M39.7431 22.4363H37.9656V24.2138H39.7431V22.4363Z" fill="white"/>
<path d="M41.4687 22.4363H39.6912V24.2138H41.4687V22.4363Z" fill="white"/>
<path d="M46.646 22.4363H44.8685V24.2138H46.646V22.4363Z" fill="white"/>
<path d="M57 22.4363H55.2226V24.2138H57V22.4363Z" fill="white"/>
<path d="M3.50307 24.1619H1.72559V25.9393H3.50307V24.1619Z" fill="white"/>
<path d="M5.22867 24.1619H3.45119V25.9393H5.22867V24.1619Z" fill="white"/>
<path d="M6.95477 24.1619H5.17729V25.9393H6.95477V24.1619Z" fill="white"/>
<path d="M10.406 24.1619H8.62848V25.9393H10.406V24.1619Z" fill="white"/>
<path d="M12.1316 24.1619H10.3541V25.9393H12.1316V24.1619Z" fill="white"/>
<path d="M13.8577 24.1619H12.0802V25.9393H13.8577V24.1619Z" fill="white"/>
<path d="M22.4861 24.1619H20.7087V25.9393H22.4861V24.1619Z" fill="white"/>
<path d="M24.2117 24.1619H22.4342V25.9393H24.2117V24.1619Z" fill="white"/>
<path d="M25.9373 24.1619H24.1598V25.9393H25.9373V24.1619Z" fill="white"/>
<path d="M27.6634 24.1619H25.886V25.9393H27.6634V24.1619Z" fill="white"/>
<path d="M32.8402 24.1619H31.0627V25.9393H32.8402V24.1619Z" fill="white"/>
<path d="M34.5658 24.1619H32.7883V25.9393H34.5658V24.1619Z" fill="white"/>
<path d="M36.2914 24.1619H34.5139V25.9393H36.2914V24.1619Z" fill="white"/>
<path d="M39.7431 24.1619H37.9656V25.9393H39.7431V24.1619Z" fill="white"/>
<path d="M46.646 24.1619H44.8685V25.9393H46.646V24.1619Z" fill="white"/>
<path d="M50.0972 24.1619H48.3197V25.9393H50.0972V24.1619Z" fill="white"/>
<path d="M53.5489 24.1619H51.7714V25.9393H53.5489V24.1619Z" fill="white"/>
<path d="M55.2745 24.1619H53.497V25.9393H55.2745V24.1619Z" fill="white"/>
<path d="M1.77748 25.8875H0V27.6649H1.77748V25.8875Z" fill="white"/>
<path d="M6.95426 25.8875H5.17678V27.6649H6.95426V25.8875Z" fill="white"/>
<path d="M8.67985 25.8875H6.90237V27.6649H8.67985V25.8875Z" fill="white"/>
<path d="M10.4065 25.8875H8.629V27.6649H10.4065V25.8875Z" fill="white"/>
<path d="M15.5832 25.8875H13.8058V27.6649H15.5832V25.8875Z" fill="white"/>
<path d="M17.3088 25.8875H15.5314V27.6649H17.3088V25.8875Z" fill="white"/>
<path d="M19.0344 25.8875H17.257V27.6649H19.0344V25.8875Z" fill="white"/>
<path d="M20.76 25.8875H18.9826V27.6649H20.76V25.8875Z" fill="white"/>
<path d="M22.4856 25.8875H20.7081V27.6649H22.4856V25.8875Z" fill="white"/>
<path d="M24.2112 25.8875H22.4337V27.6649H24.2112V25.8875Z" fill="white"/>
<path d="M25.9368 25.8875H24.1593V27.6649H25.9368V25.8875Z" fill="white"/>
<path d="M27.6624 25.8875H25.8849V27.6649H27.6624V25.8875Z" fill="white"/>
<path d="M29.388 25.8875H27.6105V27.6649H29.388V25.8875Z" fill="white"/>
<path d="M31.1146 25.8875H29.3371V27.6649H31.1146V25.8875Z" fill="white"/>
<path d="M38.0175 25.8875H36.24V27.6649H38.0175V25.8875Z" fill="white"/>
<path d="M39.7431 25.8875H37.9656V27.6649H39.7431V25.8875Z" fill="white"/>
<path d="M41.4687 25.8875H39.6912V27.6649H41.4687V25.8875Z" fill="white"/>
<path d="M43.1943 25.8875H41.4168V27.6649H43.1943V25.8875Z" fill="white"/>
<path d="M48.3721 25.8875H46.5946V27.6649H48.3721V25.8875Z" fill="white"/>
<path d="M51.8228 25.8875H50.0453V27.6649H51.8228V25.8875Z" fill="white"/>
<path d="M53.5484 25.8875H51.7709V27.6649H53.5484V25.8875Z" fill="white"/>
<path d="M55.2745 25.8875H53.497V27.6649H55.2745V25.8875Z" fill="white"/>
<path d="M57 25.8875H55.2226V27.6649H57V25.8875Z" fill="white"/>
<path d="M1.77748 27.613H0V29.3905H1.77748V27.613Z" fill="white"/>
<path d="M3.50307 27.613H1.72559V29.3905H3.50307V27.613Z" fill="white"/>
<path d="M5.22867 27.613H3.45119V29.3905H5.22867V27.613Z" fill="white"/>
<path d="M8.67985 27.613H6.90237V29.3905H8.67985V27.613Z" fill="white"/>
<path d="M10.4054 27.613H8.62796V29.3905H10.4054V27.613Z" fill="white"/>
<path d="M12.131 27.613H10.3536V29.3905H12.131V27.613Z" fill="white"/>
<path d="M13.8566 27.613H12.0791V29.3905H13.8566V27.613Z" fill="white"/>
<path d="M20.76 27.613H18.9826V29.3905H20.76V27.613Z" fill="white"/>
<path d="M22.4861 27.613H20.7087V29.3905H22.4861V27.613Z" fill="white"/>
<path d="M34.5658 27.613H32.7883V29.3905H34.5658V27.613Z" fill="white"/>
<path d="M44.9194 27.613H43.1419V29.3905H44.9194V27.613Z" fill="white"/>
<path d="M48.3721 27.613H46.5946V29.3905H48.3721V27.613Z" fill="white"/>
<path d="M50.0972 27.613H48.3197V29.3905H50.0972V27.613Z" fill="white"/>
<path d="M55.2745 27.613H53.497V29.3905H55.2745V27.613Z" fill="white"/>
<path d="M57 27.613H55.2226V29.3905H57V27.613Z" fill="white"/>
<path d="M1.77748 29.3386H0V31.1161H1.77748V29.3386Z" fill="white"/>
<path d="M5.22867 29.3386H3.45119V31.1161H5.22867V29.3386Z" fill="white"/>
<path d="M10.4054 29.3386H8.62796V31.1161H10.4054V29.3386Z" fill="white"/>
<path d="M15.5832 29.3386H13.8058V31.1161H15.5832V29.3386Z" fill="white"/>
<path d="M22.4861 29.3386H20.7087V31.1161H22.4861V29.3386Z" fill="white"/>
<path d="M24.2112 29.3386H22.4337V31.1161H24.2112V29.3386Z" fill="white"/>
<path d="M25.9368 29.3386H24.1593V31.1161H25.9368V29.3386Z" fill="white"/>
<path d="M29.389 29.3386H27.6115V31.1161H29.389V29.3386Z" fill="white"/>
<path d="M31.1146 29.3386H29.3371V31.1161H31.1146V29.3386Z" fill="white"/>
<path d="M34.5658 29.3386H32.7883V31.1161H34.5658V29.3386Z" fill="white"/>
<path d="M36.2914 29.3386H34.5139V31.1161H36.2914V29.3386Z" fill="white"/>
<path d="M38.017 29.3386H36.2395V31.1161H38.017V29.3386Z" fill="white"/>
<path d="M41.4687 29.3386H39.6912V31.1161H41.4687V29.3386Z" fill="white"/>
<path d="M43.1943 29.3386H41.4168V31.1161H43.1943V29.3386Z" fill="white"/>
<path d="M46.6465 29.3386H44.869V31.1161H46.6465V29.3386Z" fill="white"/>
<path d="M57 29.3386H55.2226V31.1161H57V29.3386Z" fill="white"/>
<path d="M6.95426 31.0642H5.17678V32.8417H6.95426V31.0642Z" fill="white"/>
<path d="M10.4054 31.0642H8.62796V32.8417H10.4054V31.0642Z" fill="white"/>
<path d="M12.131 31.0642H10.3536V32.8417H12.131V31.0642Z" fill="white"/>
<path d="M17.3088 31.0642H15.5314V32.8417H17.3088V31.0642Z" fill="white"/>
<path d="M19.0344 31.0642H17.257V32.8417H19.0344V31.0642Z" fill="white"/>
<path d="M20.7605 31.0642H18.9831V32.8417H20.7605V31.0642Z" fill="white"/>
<path d="M22.4861 31.0642H20.7087V32.8417H22.4861V31.0642Z" fill="white"/>
<path d="M25.9368 31.0642H24.1593V32.8417H25.9368V31.0642Z" fill="white"/>
<path d="M27.6639 31.0642H25.8865V32.8417H27.6639V31.0642Z" fill="white"/>
<path d="M29.389 31.0642H27.6115V32.8417H29.389V31.0642Z" fill="white"/>
<path d="M36.2914 31.0642H34.5139V32.8417H36.2914V31.0642Z" fill="white"/>
<path d="M38.0175 31.0642H36.24V32.8417H38.0175V31.0642Z" fill="white"/>
<path d="M46.6465 31.0642H44.869V32.8417H46.6465V31.0642Z" fill="white"/>
<path d="M50.0972 31.0642H48.3197V32.8417H50.0972V31.0642Z" fill="white"/>
<path d="M53.5489 31.0642H51.7714V32.8417H53.5489V31.0642Z" fill="white"/>
<path d="M55.2745 31.0642H53.497V32.8417H55.2745V31.0642Z" fill="white"/>
<path d="M19.0344 32.7899H17.257V34.5674H19.0344V32.7899Z" fill="white"/>
<path d="M20.7605 32.7899H18.9831V34.5674H20.7605V32.7899Z" fill="white"/>
<path d="M22.4861 32.7899H20.7087V34.5674H22.4861V32.7899Z" fill="white"/>
<path d="M24.2112 32.7899H22.4337V34.5674H24.2112V32.7899Z" fill="white"/>
<path d="M25.9368 32.7899H24.1593V34.5674H25.9368V32.7899Z" fill="white"/>
<path d="M27.6639 32.7899H25.8865V34.5674H27.6639V32.7899Z" fill="white"/>
<path d="M32.8402 32.7899H31.0627V34.5674H32.8402V32.7899Z" fill="white"/>
<path d="M34.5658 32.7899H32.7883V34.5674H34.5658V32.7899Z" fill="white"/>
<path d="M36.2914 32.7899H34.5139V34.5674H36.2914V32.7899Z" fill="white"/>
<path d="M38.0175 32.7899H36.24V34.5674H38.0175V32.7899Z" fill="white"/>
<path d="M39.7431 32.7899H37.9656V34.5674H39.7431V32.7899Z" fill="white"/>
<path d="M41.4687 32.7899H39.6912V34.5674H41.4687V32.7899Z" fill="white"/>
<path d="M43.1943 32.7899H41.4168V34.5674H43.1943V32.7899Z" fill="white"/>
<path d="M48.3721 32.7899H46.5946V34.5674H48.3721V32.7899Z" fill="white"/>
<path d="M51.8233 32.7899H50.0458V34.5674H51.8233V32.7899Z" fill="white"/>
<path d="M53.5489 32.7899H51.7714V34.5674H53.5489V32.7899Z" fill="white"/>
<path d="M55.2745 32.7899H53.497V34.5674H55.2745V32.7899Z" fill="white"/>
<path d="M57 32.7899H55.2226V34.5674H57V32.7899Z" fill="white"/>
<path d="M1.77748 34.5155H0V36.293H1.77748V34.5155Z" fill="white"/>
<path d="M3.50307 34.5155H1.72559V36.293H3.50307V34.5155Z" fill="white"/>
<path d="M5.22867 34.5155H3.45119V36.293H5.22867V34.5155Z" fill="white"/>
<path d="M6.95426 34.5155H5.17678V36.293H6.95426V34.5155Z" fill="white"/>
<path d="M10.4054 34.5155H8.62796V36.293H10.4054V34.5155Z" fill="white"/>
<path d="M12.131 34.5155H10.3536V36.293H12.131V34.5155Z" fill="white"/>
<path d="M15.5832 34.5155H13.8058V36.293H15.5832V34.5155Z" fill="white"/>
<path d="M24.2112 34.5155H22.4337V36.293H24.2112V34.5155Z" fill="white"/>
<path d="M27.6624 34.5155H25.8849V36.293H27.6624V34.5155Z" fill="white"/>
<path d="M29.389 34.5155H27.6115V36.293H29.389V34.5155Z" fill="white"/>
<path d="M32.8402 34.5155H31.0627V36.293H32.8402V34.5155Z" fill="white"/>
<path d="M34.5658 34.5155H32.7883V36.293H34.5658V34.5155Z" fill="white"/>
<path d="M39.7431 34.5155H37.9656V36.293H39.7431V34.5155Z" fill="white"/>
<path d="M43.1943 34.5155H41.4168V36.293H43.1943V34.5155Z" fill="white"/>
<path d="M44.9194 34.5155H43.1419V36.293H44.9194V34.5155Z" fill="white"/>
<path d="M48.3721 34.5155H46.5946V36.293H48.3721V34.5155Z" fill="white"/>
<path d="M50.0972 34.5155H48.3197V36.293H50.0972V34.5155Z" fill="white"/>
<path d="M51.8228 34.5155H50.0453V36.293H51.8228V34.5155Z" fill="white"/>
<path d="M1.77748 36.24H0V38.0175H1.77748V36.24Z" fill="white"/>
<path d="M5.22867 36.24H3.45119V38.0175H5.22867V36.24Z" fill="white"/>
<path d="M15.5832 36.24H13.8058V38.0175H15.5832V36.24Z" fill="white"/>
<path d="M17.3088 36.24H15.5314V38.0175H17.3088V36.24Z" fill="white"/>
<path d="M19.0344 36.24H17.257V38.0175H19.0344V36.24Z" fill="white"/>
<path d="M20.76 36.24H18.9826V38.0175H20.76V36.24Z" fill="white"/>
<path d="M24.2112 36.24H22.4337V38.0175H24.2112V36.24Z" fill="white"/>
<path d="M32.8402 36.24H31.0627V38.0175H32.8402V36.24Z" fill="white"/>
<path d="M34.5658 36.24H32.7883V38.0175H34.5658V36.24Z" fill="white"/>
<path d="M38.017 36.24H36.2395V38.0175H38.017V36.24Z" fill="white"/>
<path d="M39.7431 36.24H37.9656V38.0175H39.7431V36.24Z" fill="white"/>
<path d="M43.1943 36.24H41.4168V38.0175H43.1943V36.24Z" fill="white"/>
<path d="M44.9194 36.24H43.1419V38.0175H44.9194V36.24Z" fill="white"/>
<path d="M46.6465 36.24H44.869V38.0175H46.6465V36.24Z" fill="white"/>
<path d="M51.8228 36.24H50.0453V38.0175H51.8228V36.24Z" fill="white"/>
<path d="M57 36.24H55.2226V38.0175H57V36.24Z" fill="white"/>
<path d="M1.77748 37.9656H0V39.7431H1.77748V37.9656Z" fill="white"/>
<path d="M10.4065 37.9656H8.629V39.7431H10.4065V37.9656Z" fill="white"/>
<path d="M12.1321 37.9656H10.3546V39.7431H12.1321V37.9656Z" fill="white"/>
<path d="M13.8577 37.9656H12.0802V39.7431H13.8577V37.9656Z" fill="white"/>
<path d="M15.5832 37.9656H13.8058V39.7431H15.5832V37.9656Z" fill="white"/>
<path d="M19.0344 37.9656H17.257V39.7431H19.0344V37.9656Z" fill="white"/>
<path d="M20.76 37.9656H18.9826V39.7431H20.76V37.9656Z" fill="white"/>
<path d="M22.4856 37.9656H20.7081V39.7431H22.4856V37.9656Z" fill="white"/>
<path d="M24.2112 37.9656H22.4337V39.7431H24.2112V37.9656Z" fill="white"/>
<path d="M27.6624 37.9656H25.8849V39.7431H27.6624V37.9656Z" fill="white"/>
<path d="M29.388 37.9656H27.6105V39.7431H29.388V37.9656Z" fill="white"/>
<path d="M32.8402 37.9656H31.0627V39.7431H32.8402V37.9656Z" fill="white"/>
<path d="M34.5663 37.9656H32.7888V39.7431H34.5663V37.9656Z" fill="white"/>
<path d="M36.2919 37.9656H34.5144V39.7431H36.2919V37.9656Z" fill="white"/>
<path d="M38.0175 37.9656H36.24V39.7431H38.0175V37.9656Z" fill="white"/>
<path d="M39.7431 37.9656H37.9656V39.7431H39.7431V37.9656Z" fill="white"/>
<path d="M55.2745 37.9656H53.497V39.7431H55.2745V37.9656Z" fill="white"/>
<path d="M1.77748 39.6912H0V41.4686H1.77748V39.6912Z" fill="white"/>
<path d="M8.67985 39.6912H6.90237V41.4686H8.67985V39.6912Z" fill="white"/>
<path d="M10.4054 39.6912H8.62796V41.4686H10.4054V39.6912Z" fill="white"/>
<path d="M13.8577 39.6912H12.0802V41.4686H13.8577V39.6912Z" fill="white"/>
<path d="M15.5832 39.6912H13.8058V41.4686H15.5832V39.6912Z" fill="white"/>
<path d="M17.3088 39.6912H15.5314V41.4686H17.3088V39.6912Z" fill="white"/>
<path d="M20.7605 39.6912H18.9831V41.4686H20.7605V39.6912Z" fill="white"/>
<path d="M24.2112 39.6912H22.4337V41.4686H24.2112V39.6912Z" fill="white"/>
<path d="M31.1146 39.6912H29.3371V41.4686H31.1146V39.6912Z" fill="white"/>
<path d="M32.8402 39.6912H31.0627V41.4686H32.8402V39.6912Z" fill="white"/>
<path d="M36.2914 39.6912H34.5139V41.4686H36.2914V39.6912Z" fill="white"/>
<path d="M38.0175 39.6912H36.24V41.4686H38.0175V39.6912Z" fill="white"/>
<path d="M39.7431 39.6912H37.9656V41.4686H39.7431V39.6912Z" fill="white"/>
<path d="M50.0972 39.6912H48.3197V41.4686H50.0972V39.6912Z" fill="white"/>
<path d="M51.8233 39.6912H50.0458V41.4686H51.8233V39.6912Z" fill="white"/>
<path d="M53.5489 39.6912H51.7714V41.4686H53.5489V39.6912Z" fill="white"/>
<path d="M55.2745 39.6912H53.497V41.4686H55.2745V39.6912Z" fill="white"/>
<path d="M57 39.6912H55.2226V41.4686H57V39.6912Z" fill="white"/>
<path d="M1.77748 41.4167H0V43.1942H1.77748V41.4167Z" fill="white"/>
<path d="M12.1321 41.4167H10.3546V43.1942H12.1321V41.4167Z" fill="white"/>
<path d="M19.0344 41.4167H17.257V43.1942H19.0344V41.4167Z" fill="white"/>
<path d="M20.76 41.4167H18.9826V43.1942H20.76V41.4167Z" fill="white"/>
<path d="M24.2112 41.4167H22.4337V43.1942H24.2112V41.4167Z" fill="white"/>
<path d="M27.6624 41.4167H25.8849V43.1942H27.6624V41.4167Z" fill="white"/>
<path d="M32.8402 41.4167H31.0627V43.1942H32.8402V41.4167Z" fill="white"/>
<path d="M39.7431 41.4167H37.9656V43.1942H39.7431V41.4167Z" fill="white"/>
<path d="M43.1943 41.4167H41.4168V43.1942H43.1943V41.4167Z" fill="white"/>
<path d="M44.9209 41.4167H43.1434V43.1942H44.9209V41.4167Z" fill="white"/>
<path d="M46.6465 41.4167H44.869V43.1942H46.6465V41.4167Z" fill="white"/>
<path d="M48.3721 41.4167H46.5946V43.1942H48.3721V41.4167Z" fill="white"/>
<path d="M50.0972 41.4167H48.3197V43.1942H50.0972V41.4167Z" fill="white"/>
<path d="M15.5832 43.1423H13.8058V44.9198H15.5832V43.1423Z" fill="white"/>
<path d="M19.0344 43.1423H17.257V44.9198H19.0344V43.1423Z" fill="white"/>
<path d="M20.76 43.1423H18.9826V44.9198H20.76V43.1423Z" fill="white"/>
<path d="M24.2112 43.1423H22.4337V44.9198H24.2112V43.1423Z" fill="white"/>
<path d="M25.9368 43.1423H24.1593V44.9198H25.9368V43.1423Z" fill="white"/>
<path d="M27.6624 43.1423H25.8849V44.9198H27.6624V43.1423Z" fill="white"/>
<path d="M29.388 43.1423H27.6105V44.9198H29.388V43.1423Z" fill="white"/>
<path d="M32.8402 43.1423H31.0627V44.9198H32.8402V43.1423Z" fill="white"/>
<path d="M34.5658 43.1423H32.7883V44.9198H34.5658V43.1423Z" fill="white"/>
<path d="M36.2919 43.1423H34.5144V44.9198H36.2919V43.1423Z" fill="white"/>
<path d="M39.7431 43.1423H37.9656V44.9198H39.7431V43.1423Z" fill="white"/>
<path d="M41.4687 43.1423H39.6912V44.9198H41.4687V43.1423Z" fill="white"/>
<path d="M43.1943 43.1423H41.4168V44.9198H43.1943V43.1423Z" fill="white"/>
<path d="M50.0972 43.1423H48.3197V44.9198H50.0972V43.1423Z" fill="white"/>
<path d="M51.8228 43.1423H50.0453V44.9198H51.8228V43.1423Z" fill="white"/>
<path d="M53.5484 43.1423H51.7709V44.9198H53.5484V43.1423Z" fill="white"/>
<path d="M55.2739 43.1423H53.4965V44.9198H55.2739V43.1423Z" fill="white"/>
<path d="M57 43.1423H55.2226V44.9198H57V43.1423Z" fill="white"/>
<path d="M17.3088 44.87H15.5314V46.6475H17.3088V44.87Z" fill="white"/>
<path d="M20.7605 44.87H18.9831V46.6475H20.7605V44.87Z" fill="white"/>
<path d="M22.4861 44.87H20.7087V46.6475H22.4861V44.87Z" fill="white"/>
<path d="M27.6629 44.87H25.8854V46.6475H27.6629V44.87Z" fill="white"/>
<path d="M32.8397 44.87H31.0622V46.6475H32.8397V44.87Z" fill="white"/>
<path d="M39.7431 44.87H37.9656V46.6475H39.7431V44.87Z" fill="white"/>
<path d="M41.4687 44.87H39.6912V46.6475H41.4687V44.87Z" fill="white"/>
<path d="M43.1943 44.87H41.4168V46.6475H43.1943V44.87Z" fill="white"/>
<path d="M46.646 44.87H44.8685V46.6475H46.646V44.87Z" fill="white"/>
<path d="M50.0966 44.87H48.3192V46.6475H50.0966V44.87Z" fill="white"/>
<path d="M51.8233 44.87H50.0458V46.6475H51.8233V44.87Z" fill="white"/>
<path d="M53.5489 44.87H51.7714V46.6475H53.5489V44.87Z" fill="white"/>
<path d="M55.2745 44.87H53.497V46.6475H55.2745V44.87Z" fill="white"/>
<path d="M20.76 46.5936H18.9826V48.3711H20.76V46.5936Z" fill="white"/>
<path d="M25.9368 46.5936H24.1593V48.3711H25.9368V46.5936Z" fill="white"/>
<path d="M29.388 46.5936H27.6105V48.3711H29.388V46.5936Z" fill="white"/>
<path d="M34.5663 46.5936H32.7888V48.3711H34.5663V46.5936Z" fill="white"/>
<path d="M36.2919 46.5936H34.5144V48.3711H36.2919V46.5936Z" fill="white"/>
<path d="M41.4687 46.5936H39.6912V48.3711H41.4687V46.5936Z" fill="white"/>
<path d="M43.1943 46.5936H41.4168V48.3711H43.1943V46.5936Z" fill="white"/>
<path d="M50.0972 46.5936H48.3197V48.3711H50.0972V46.5936Z" fill="white"/>
<path d="M51.8228 46.5936H50.0453V48.3711H51.8228V46.5936Z" fill="white"/>
<path d="M53.5484 46.5936H51.7709V48.3711H53.5484V46.5936Z" fill="white"/>
<path d="M55.2745 46.5936H53.497V48.3711H55.2745V46.5936Z" fill="white"/>
<path d="M57 46.5936H55.2226V48.3711H57V46.5936Z" fill="white"/>
<path d="M15.5827 48.3212H13.8053V50.0986H15.5827V48.3212Z" fill="white"/>
<path d="M24.2117 48.3212H22.4342V50.0986H24.2117V48.3212Z" fill="white"/>
<path d="M29.3885 48.3212H27.611V50.0986H29.3885V48.3212Z" fill="white"/>
<path d="M32.8397 48.3212H31.0622V50.0986H32.8397V48.3212Z" fill="white"/>
<path d="M36.2914 48.3212H34.5139V50.0986H36.2914V48.3212Z" fill="white"/>
<path d="M38.017 48.3212H36.2395V50.0986H38.017V48.3212Z" fill="white"/>
<path d="M39.7431 48.3212H37.9656V50.0986H39.7431V48.3212Z" fill="white"/>
<path d="M43.1943 48.3212H41.4168V50.0986H43.1943V48.3212Z" fill="white"/>
<path d="M44.9199 48.3212H43.1424V50.0986H44.9199V48.3212Z" fill="white"/>
<path d="M46.646 48.3212H44.8685V50.0986H46.646V48.3212Z" fill="white"/>
<path d="M48.3711 48.3212H46.5936V50.0986H48.3711V48.3212Z" fill="white"/>
<path d="M50.0966 48.3212H48.3192V50.0986H50.0966V48.3212Z" fill="white"/>
<path d="M51.8222 48.3212H50.0448V50.0986H51.8222V48.3212Z" fill="white"/>
<path d="M55.2745 48.3212H53.497V50.0986H55.2745V48.3212Z" fill="white"/>
<path d="M57 48.3212H55.2226V50.0986H57V48.3212Z" fill="white"/>
<path d="M15.5827 50.0469H13.8053V51.8244H15.5827V50.0469Z" fill="white"/>
<path d="M19.0344 50.0469H17.257V51.8244H19.0344V50.0469Z" fill="white"/>
<path d="M22.4861 50.0469H20.7087V51.8244H22.4861V50.0469Z" fill="white"/>
<path d="M24.2117 50.0469H22.4342V51.8244H24.2117V50.0469Z" fill="white"/>
<path d="M32.8397 50.0469H31.0622V51.8244H32.8397V50.0469Z" fill="white"/>
<path d="M34.5653 50.0469H32.7878V51.8244H34.5653V50.0469Z" fill="white"/>
<path d="M36.2914 50.0469H34.5139V51.8244H36.2914V50.0469Z" fill="white"/>
<path d="M41.4687 50.0469H39.6912V51.8244H41.4687V50.0469Z" fill="white"/>
<path d="M43.1943 50.0469H41.4168V51.8244H43.1943V50.0469Z" fill="white"/>
<path d="M44.9199 50.0469H43.1424V51.8244H44.9199V50.0469Z" fill="white"/>
<path d="M50.0966 50.0469H48.3192V51.8244H50.0966V50.0469Z" fill="white"/>
<path d="M53.5489 50.0469H51.7714V51.8244H53.5489V50.0469Z" fill="white"/>
<path d="M55.2745 50.0469H53.497V51.8244H55.2745V50.0469Z" fill="white"/>
<path d="M15.5827 51.7725H13.8053V53.5499H15.5827V51.7725Z" fill="white"/>
<path d="M19.0344 51.7725H17.257V53.5499H19.0344V51.7725Z" fill="white"/>
<path d="M25.9373 51.7725H24.1598V53.5499H25.9373V51.7725Z" fill="white"/>
<path d="M31.1141 51.7725H29.3366V53.5499H31.1141V51.7725Z" fill="white"/>
<path d="M32.8397 51.7725H31.0622V53.5499H32.8397V51.7725Z" fill="white"/>
<path d="M34.5663 51.7725H32.7888V53.5499H34.5663V51.7725Z" fill="white"/>
<path d="M36.2919 51.7725H34.5144V53.5499H36.2919V51.7725Z" fill="white"/>
<path d="M38.0175 51.7725H36.24V53.5499H38.0175V51.7725Z" fill="white"/>
<path d="M43.1948 51.7725H41.4173V53.5499H43.1948V51.7725Z" fill="white"/>
<path d="M44.9204 51.7725H43.1429V53.5499H44.9204V51.7725Z" fill="white"/>
<path d="M46.646 51.7725H44.8685V53.5499H46.646V51.7725Z" fill="white"/>
<path d="M51.8222 51.7725H50.0448V53.5499H51.8222V51.7725Z" fill="white"/>
<path d="M53.5478 51.7725H51.7704V53.5499H53.5478V51.7725Z" fill="white"/>
<path d="M17.3088 53.498H15.5314V55.2755H17.3088V53.498Z" fill="white"/>
<path d="M20.7605 53.498H18.9831V55.2755H20.7605V53.498Z" fill="white"/>
<path d="M24.2117 53.498H22.4342V55.2755H24.2117V53.498Z" fill="white"/>
<path d="M25.9373 53.498H24.1598V55.2755H25.9373V53.498Z" fill="white"/>
<path d="M27.6629 53.498H25.8854V55.2755H27.6629V53.498Z" fill="white"/>
<path d="M29.3885 53.498H27.611V55.2755H29.3885V53.498Z" fill="white"/>
<path d="M31.1141 53.498H29.3366V55.2755H31.1141V53.498Z" fill="white"/>
<path d="M32.8397 53.498H31.0622V55.2755H32.8397V53.498Z" fill="white"/>
<path d="M36.2914 53.498H34.5139V55.2755H36.2914V53.498Z" fill="white"/>
<path d="M39.7431 53.498H37.9656V55.2755H39.7431V53.498Z" fill="white"/>
<path d="M41.4687 53.498H39.6912V55.2755H41.4687V53.498Z" fill="white"/>
<path d="M44.9204 53.498H43.1429V55.2755H44.9204V53.498Z" fill="white"/>
<path d="M46.646 53.498H44.8685V55.2755H46.646V53.498Z" fill="white"/>
<path d="M48.3711 53.498H46.5936V55.2755H48.3711V53.498Z" fill="white"/>
<path d="M51.8233 53.498H50.0458V55.2755H51.8233V53.498Z" fill="white"/>
<path d="M53.5489 53.498H51.7714V55.2755H53.5489V53.498Z" fill="white"/>
<path d="M19.0344 55.2236H17.257V57.0011H19.0344V55.2236Z" fill="white"/>
<path d="M22.4856 55.2236H20.7081V57.0011H22.4856V55.2236Z" fill="white"/>
<path d="M25.9373 55.2236H24.1598V57.0011H25.9373V55.2236Z" fill="white"/>
<path d="M27.6629 55.2236H25.8854V57.0011H27.6629V55.2236Z" fill="white"/>
<path d="M31.1141 55.2236H29.3366V57.0011H31.1141V55.2236Z" fill="white"/>
<path d="M34.5653 55.2236H32.7878V57.0011H34.5653V55.2236Z" fill="white"/>
<path d="M36.2919 55.2236H34.5144V57.0011H36.2919V55.2236Z" fill="white"/>
<path d="M41.4687 55.2236H39.6912V57.0011H41.4687V55.2236Z" fill="white"/>
<path d="M43.1948 55.2236H41.4173V57.0011H43.1948V55.2236Z" fill="white"/>
<path d="M44.9204 55.2236H43.1429V57.0011H44.9204V55.2236Z" fill="white"/>
<path d="M46.646 55.2236H44.8685V57.0011H46.646V55.2236Z" fill="white"/>
<path d="M51.8222 55.2236H50.0448V57.0011H51.8222V55.2236Z" fill="white"/>
<path d="M55.2734 55.2236H53.4959V57.0011H55.2734V55.2236Z" fill="white"/>
<path d="M0 0V12.08H12.08V0H0ZM10.3542 10.3542H1.72571V1.72571H10.3542V10.3542Z" fill="white"/>
<path d="M44.8688 0V12.08H56.9487V0H44.8688ZM55.223 10.3542H46.5945V1.72571H55.223V10.3542Z" fill="white"/>
<path d="M0 44.87V56.9499H12.08V44.87H0ZM10.3542 55.2242H1.72571V46.5957H10.3542V55.2242Z" fill="white"/>
<path d="M8.62934 3.45374H3.45222V8.63086H8.62934V3.45374Z" fill="white"/>
<path d="M53.4973 3.45374H48.3202V8.63086H53.4973V3.45374Z" fill="white"/>
<path d="M8.62831 48.3212H3.45119V53.4983H8.62831V48.3212Z" fill="white"/>
</svg>
