<svg width="793" height="793" viewBox="0 0 793 793" fill="none" xmlns="http://www.w3.org/2000/svg">
<path d="M216.72 0H192V24.72H216.72V0Z" fill="white"/>
<path fill-rule="evenodd" clip-rule="evenodd" d="M216.22 0.5H192.5V24.22H216.22V0.5ZM216.72 0V24.72H192V0H216.72Z" fill="white"/>
<path d="M264.72 0H240V24.72H264.72V0Z" fill="white"/>
<path fill-rule="evenodd" clip-rule="evenodd" d="M264.22 0.5H240.5V24.22H264.22V0.5ZM264.72 0V24.72H240V0H264.72Z" fill="white"/>
<path d="M336.72 0H312V24.72H336.72V0Z" fill="white"/>
<path fill-rule="evenodd" clip-rule="evenodd" d="M336.22 0.5H312.5V24.22H336.22V0.5ZM336.72 0V24.72H312V0H336.72Z" fill="white"/>
<path d="M360.72 0H336V24.72H360.72V0Z" fill="white"/>
<path fill-rule="evenodd" clip-rule="evenodd" d="M360.22 0.5H336.5V24.22H360.22V0.5ZM360.72 0V24.72H336V0H360.72Z" fill="white"/>
<path d="M432.72 0H408V24.72H432.72V0Z" fill="white"/>
<path fill-rule="evenodd" clip-rule="evenodd" d="M432.22 0.5H408.5V24.22H432.22V0.5ZM432.72 0V24.72H408V0H432.72Z" fill="white"/>
<path d="M576.72 0H552V24.72H576.72V0Z" fill="white"/>
<path fill-rule="evenodd" clip-rule="evenodd" d="M576.22 0.5H552.5V24.22H576.22V0.5ZM576.72 0V24.72H552V0H576.72Z" fill="white"/>
<path d="M600.72 0H576V24.72H600.72V0Z" fill="white"/>
<path fill-rule="evenodd" clip-rule="evenodd" d="M600.22 0.5H576.5V24.22H600.22V0.5ZM600.72 0V24.72H576V0H600.72Z" fill="white"/>
<path d="M216.72 24H192V48.72H216.72V24Z" fill="white"/>
<path fill-rule="evenodd" clip-rule="evenodd" d="M216.22 24.5H192.5V48.22H216.22V24.5ZM216.72 24V48.72H192V24H216.72Z" fill="white"/>
<path d="M288.72 24H264V48.72H288.72V24Z" fill="white"/>
<path fill-rule="evenodd" clip-rule="evenodd" d="M288.22 24.5H264.5V48.22H288.22V24.5ZM288.72 24V48.72H264V24H288.72Z" fill="white"/>
<path d="M360.72 24H336V48.72H360.72V24Z" fill="white"/>
<path fill-rule="evenodd" clip-rule="evenodd" d="M360.22 24.5H336.5V48.22H360.22V24.5ZM360.72 24V48.72H336V24H360.72Z" fill="white"/>
<path d="M408.72 24H384V48.72H408.72V24Z" fill="white"/>
<path fill-rule="evenodd" clip-rule="evenodd" d="M408.22 24.5H384.5V48.22H408.22V24.5ZM408.72 24V48.72H384V24H408.72Z" fill="white"/>
<path d="M456.72 24H432V48.72H456.72V24Z" fill="white"/>
<path fill-rule="evenodd" clip-rule="evenodd" d="M456.22 24.5H432.5V48.22H456.22V24.5ZM456.72 24V48.72H432V24H456.72Z" fill="white"/>
<path d="M480.72 24H456V48.72H480.72V24Z" fill="white"/>
<path fill-rule="evenodd" clip-rule="evenodd" d="M480.22 24.5H456.5V48.22H480.22V24.5ZM480.72 24V48.72H456V24H480.72Z" fill="white"/>
<path d="M552.72 24H528V48.72H552.72V24Z" fill="white"/>
<path fill-rule="evenodd" clip-rule="evenodd" d="M552.22 24.5H528.5V48.22H552.22V24.5ZM552.72 24V48.72H528V24H552.72Z" fill="white"/>
<path d="M600.72 24H576V48.72H600.72V24Z" fill="white"/>
<path fill-rule="evenodd" clip-rule="evenodd" d="M600.22 24.5H576.5V48.22H600.22V24.5ZM600.72 24V48.72H576V24H600.72Z" fill="white"/>
<path d="M216.72 48H192V72.72H216.72V48Z" fill="white"/>
<path fill-rule="evenodd" clip-rule="evenodd" d="M216.22 48.5H192.5V72.22H216.22V48.5ZM216.72 48V72.72H192V48H216.72Z" fill="white"/>
<path d="M264.72 48H240V72.72H264.72V48Z" fill="white"/>
<path fill-rule="evenodd" clip-rule="evenodd" d="M264.22 48.5H240.5V72.22H264.22V48.5ZM264.72 48V72.72H240V48H264.72Z" fill="white"/>
<path d="M288.72 48H264V72.72H288.72V48Z" fill="white"/>
<path fill-rule="evenodd" clip-rule="evenodd" d="M288.22 48.5H264.5V72.22H288.22V48.5ZM288.72 48V72.72H264V48H288.72Z" fill="white"/>
<path d="M312.72 48H288V72.72H312.72V48Z" fill="white"/>
<path fill-rule="evenodd" clip-rule="evenodd" d="M312.22 48.5H288.5V72.22H312.22V48.5ZM312.72 48V72.72H288V48H312.72Z" fill="white"/>
<path d="M336.72 48H312V72.72H336.72V48Z" fill="white"/>
<path fill-rule="evenodd" clip-rule="evenodd" d="M336.22 48.5H312.5V72.22H336.22V48.5ZM336.72 48V72.72H312V48H336.72Z" fill="white"/>
<path d="M360.72 48H336V72.72H360.72V48Z" fill="white"/>
<path fill-rule="evenodd" clip-rule="evenodd" d="M360.22 48.5H336.5V72.22H360.22V48.5ZM360.72 48V72.72H336V48H360.72Z" fill="white"/>
<path d="M384.72 48H360V72.72H384.72V48Z" fill="white"/>
<path fill-rule="evenodd" clip-rule="evenodd" d="M384.22 48.5H360.5V72.22H384.22V48.5ZM384.72 48V72.72H360V48H384.72Z" fill="white"/>
<path d="M408.72 48H384V72.72H408.72V48Z" fill="white"/>
<path fill-rule="evenodd" clip-rule="evenodd" d="M408.22 48.5H384.5V72.22H408.22V48.5ZM408.72 48V72.72H384V48H408.72Z" fill="white"/>
<path d="M456.72 48H432V72.72H456.72V48Z" fill="white"/>
<path fill-rule="evenodd" clip-rule="evenodd" d="M456.22 48.5H432.5V72.22H456.22V48.5ZM456.72 48V72.72H432V48H456.72Z" fill="white"/>
<path d="M528.72 48H504V72.72H528.72V48Z" fill="white"/>
<path fill-rule="evenodd" clip-rule="evenodd" d="M528.22 48.5H504.5V72.22H528.22V48.5ZM528.72 48V72.72H504V48H528.72Z" fill="white"/>
<path d="M552.72 48H528V72.72H552.72V48Z" fill="white"/>
<path fill-rule="evenodd" clip-rule="evenodd" d="M552.22 48.5H528.5V72.22H552.22V48.5ZM552.72 48V72.72H528V48H552.72Z" fill="white"/>
<path d="M576.72 48H552V72.72H576.72V48Z" fill="white"/>
<path fill-rule="evenodd" clip-rule="evenodd" d="M576.22 48.5H552.5V72.22H576.22V48.5ZM576.72 48V72.72H552V48H576.72Z" fill="white"/>
<path d="M600.72 48H576V72.72H600.72V48Z" fill="white"/>
<path fill-rule="evenodd" clip-rule="evenodd" d="M600.22 48.5H576.5V72.22H600.22V48.5ZM600.72 48V72.72H576V48H600.72Z" fill="white"/>
<path d="M240.72 72H216V96.72H240.72V72Z" fill="white"/>
<path fill-rule="evenodd" clip-rule="evenodd" d="M240.22 72.5H216.5V96.22H240.22V72.5ZM240.72 72V96.72H216V72H240.72Z" fill="white"/>
<path d="M312.72 72H288V96.72H312.72V72Z" fill="white"/>
<path fill-rule="evenodd" clip-rule="evenodd" d="M312.22 72.5H288.5V96.22H312.22V72.5ZM312.72 72V96.72H288V72H312.72Z" fill="white"/>
<path d="M336.72 72H312V96.72H336.72V72Z" fill="white"/>
<path fill-rule="evenodd" clip-rule="evenodd" d="M336.22 72.5H312.5V96.22H336.22V72.5ZM336.72 72V96.72H312V72H336.72Z" fill="white"/>
<path d="M360.72 72H336V96.72H360.72V72Z" fill="white"/>
<path fill-rule="evenodd" clip-rule="evenodd" d="M360.22 72.5H336.5V96.22H360.22V72.5ZM360.72 72V96.72H336V72H360.72Z" fill="white"/>
<path d="M408.72 72H384V96.72H408.72V72Z" fill="white"/>
<path fill-rule="evenodd" clip-rule="evenodd" d="M408.22 72.5H384.5V96.22H408.22V72.5ZM408.72 72V96.72H384V72H408.72Z" fill="white"/>
<path d="M552.72 72H528V96.72H552.72V72Z" fill="white"/>
<path fill-rule="evenodd" clip-rule="evenodd" d="M552.22 72.5H528.5V96.22H552.22V72.5ZM552.72 72V96.72H528V72H552.72Z" fill="white"/>
<path d="M576.72 72H552V96.72H576.72V72Z" fill="white"/>
<path fill-rule="evenodd" clip-rule="evenodd" d="M576.22 72.5H552.5V96.22H576.22V72.5ZM576.72 72V96.72H552V72H576.72Z" fill="white"/>
<path d="M600.72 72H576V96.72H600.72V72Z" fill="white"/>
<path fill-rule="evenodd" clip-rule="evenodd" d="M600.22 72.5H576.5V96.22H600.22V72.5ZM600.72 72V96.72H576V72H600.72Z" fill="white"/>
<path d="M240.72 96H216V120.72H240.72V96Z" fill="white"/>
<path fill-rule="evenodd" clip-rule="evenodd" d="M240.22 96.5H216.5V120.22H240.22V96.5ZM240.72 96V120.72H216V96H240.72Z" fill="white"/>
<path d="M264.72 96H240V120.72H264.72V96Z" fill="white"/>
<path fill-rule="evenodd" clip-rule="evenodd" d="M264.22 96.5H240.5V120.22H264.22V96.5ZM264.72 96V120.72H240V96H264.72Z" fill="white"/>
<path d="M288.72 96H264V120.72H288.72V96Z" fill="white"/>
<path fill-rule="evenodd" clip-rule="evenodd" d="M288.22 96.5H264.5V120.22H288.22V96.5ZM288.72 96V120.72H264V96H288.72Z" fill="white"/>
<path d="M312.72 96H288V120.72H312.72V96Z" fill="white"/>
<path fill-rule="evenodd" clip-rule="evenodd" d="M312.22 96.5H288.5V120.22H312.22V96.5ZM312.72 96V120.72H288V96H312.72Z" fill="white"/>
<path d="M336.72 96H312V120.72H336.72V96Z" fill="white"/>
<path fill-rule="evenodd" clip-rule="evenodd" d="M336.22 96.5H312.5V120.22H336.22V96.5ZM336.72 96V120.72H312V96H336.72Z" fill="white"/>
<path d="M384.72 96H360V120.72H384.72V96Z" fill="white"/>
<path fill-rule="evenodd" clip-rule="evenodd" d="M384.22 96.5H360.5V120.22H384.22V96.5ZM384.72 96V120.72H360V96H384.72Z" fill="white"/>
<path d="M408.72 96H384V120.72H408.72V96Z" fill="white"/>
<path fill-rule="evenodd" clip-rule="evenodd" d="M408.22 96.5H384.5V120.22H408.22V96.5ZM408.72 96V120.72H384V96H408.72Z" fill="white"/>
<path d="M432.72 96H408V120.72H432.72V96Z" fill="white"/>
<path fill-rule="evenodd" clip-rule="evenodd" d="M432.22 96.5H408.5V120.22H432.22V96.5ZM432.72 96V120.72H408V96H432.72Z" fill="white"/>
<path d="M456.72 96H432V120.72H456.72V96Z" fill="white"/>
<path fill-rule="evenodd" clip-rule="evenodd" d="M456.22 96.5H432.5V120.22H456.22V96.5ZM456.72 96V120.72H432V96H456.72Z" fill="white"/>
<path d="M480.72 96H456V120.72H480.72V96Z" fill="white"/>
<path fill-rule="evenodd" clip-rule="evenodd" d="M480.22 96.5H456.5V120.22H480.22V96.5ZM480.72 96V120.72H456V96H480.72Z" fill="white"/>
<path d="M528.72 96H504V120.72H528.72V96Z" fill="white"/>
<path fill-rule="evenodd" clip-rule="evenodd" d="M528.22 96.5H504.5V120.22H528.22V96.5ZM528.72 96V120.72H504V96H528.72Z" fill="white"/>
<path d="M552.72 96H528V120.72H552.72V96Z" fill="white"/>
<path fill-rule="evenodd" clip-rule="evenodd" d="M552.22 96.5H528.5V120.22H552.22V96.5ZM552.72 96V120.72H528V96H552.72Z" fill="white"/>
<path d="M216.72 120H192V144.72H216.72V120Z" fill="white"/>
<path fill-rule="evenodd" clip-rule="evenodd" d="M216.22 120.5H192.5V144.22H216.22V120.5ZM216.72 120V144.72H192V120H216.72Z" fill="white"/>
<path d="M336.72 120H312V144.72H336.72V120Z" fill="white"/>
<path fill-rule="evenodd" clip-rule="evenodd" d="M336.22 120.5H312.5V144.22H336.22V120.5ZM336.72 120V144.72H312V120H336.72Z" fill="white"/>
<path d="M384.72 120H360V144.72H384.72V120Z" fill="white"/>
<path fill-rule="evenodd" clip-rule="evenodd" d="M384.22 120.5H360.5V144.22H384.22V120.5ZM384.72 120V144.72H360V120H384.72Z" fill="white"/>
<path d="M408.72 120H384V144.72H408.72V120Z" fill="white"/>
<path fill-rule="evenodd" clip-rule="evenodd" d="M408.22 120.5H384.5V144.22H408.22V120.5ZM408.72 120V144.72H384V120H408.72Z" fill="white"/>
<path d="M432.72 120H408V144.72H432.72V120Z" fill="white"/>
<path fill-rule="evenodd" clip-rule="evenodd" d="M432.22 120.5H408.5V144.22H432.22V120.5ZM432.72 120V144.72H408V120H432.72Z" fill="white"/>
<path d="M456.72 120H432V144.72H456.72V120Z" fill="white"/>
<path fill-rule="evenodd" clip-rule="evenodd" d="M456.22 120.5H432.5V144.22H456.22V120.5ZM456.72 120V144.72H432V120H456.72Z" fill="white"/>
<path d="M480.72 120H456V144.72H480.72V120Z" fill="white"/>
<path fill-rule="evenodd" clip-rule="evenodd" d="M480.22 120.5H456.5V144.22H480.22V120.5ZM480.72 120V144.72H456V120H480.72Z" fill="white"/>
<path d="M528.72 120H504V144.72H528.72V120Z" fill="white"/>
<path fill-rule="evenodd" clip-rule="evenodd" d="M528.22 120.5H504.5V144.22H528.22V120.5ZM528.72 120V144.72H504V120H528.72Z" fill="white"/>
<path d="M576.72 120H552V144.72H576.72V120Z" fill="white"/>
<path fill-rule="evenodd" clip-rule="evenodd" d="M576.22 120.5H552.5V144.22H576.22V120.5ZM576.72 120V144.72H552V120H576.72Z" fill="white"/>
<path d="M600.72 120H576V144.72H600.72V120Z" fill="white"/>
<path fill-rule="evenodd" clip-rule="evenodd" d="M600.22 120.5H576.5V144.22H600.22V120.5ZM600.72 120V144.72H576V120H600.72Z" fill="white"/>
<path d="M216.72 144H192V168.72H216.72V144Z" fill="white"/>
<path fill-rule="evenodd" clip-rule="evenodd" d="M216.22 144.5H192.5V168.22H216.22V144.5ZM216.72 144V168.72H192V144H216.72Z" fill="white"/>
<path d="M264.72 144H240V168.72H264.72V144Z" fill="white"/>
<path fill-rule="evenodd" clip-rule="evenodd" d="M264.22 144.5H240.5V168.22H264.22V144.5ZM264.72 144V168.72H240V144H264.72Z" fill="white"/>
<path d="M312.72 144H288V168.72H312.72V144Z" fill="white"/>
<path fill-rule="evenodd" clip-rule="evenodd" d="M312.22 144.5H288.5V168.22H312.22V144.5ZM312.72 144V168.72H288V144H312.72Z" fill="white"/>
<path d="M360.72 144H336V168.72H360.72V144Z" fill="white"/>
<path fill-rule="evenodd" clip-rule="evenodd" d="M360.22 144.5H336.5V168.22H360.22V144.5ZM360.72 144V168.72H336V144H360.72Z" fill="white"/>
<path d="M408.72 144H384V168.72H408.72V144Z" fill="white"/>
<path fill-rule="evenodd" clip-rule="evenodd" d="M408.22 144.5H384.5V168.22H408.22V144.5ZM408.72 144V168.72H384V144H408.72Z" fill="white"/>
<path d="M456.72 144H432V168.72H456.72V144Z" fill="white"/>
<path fill-rule="evenodd" clip-rule="evenodd" d="M456.22 144.5H432.5V168.22H456.22V144.5ZM456.72 144V168.72H432V144H456.72Z" fill="white"/>
<path d="M504.72 144H480V168.72H504.72V144Z" fill="white"/>
<path fill-rule="evenodd" clip-rule="evenodd" d="M504.22 144.5H480.5V168.22H504.22V144.5ZM504.72 144V168.72H480V144H504.72Z" fill="white"/>
<path d="M552.72 144H528V168.72H552.72V144Z" fill="white"/>
<path fill-rule="evenodd" clip-rule="evenodd" d="M552.22 144.5H528.5V168.22H552.22V144.5ZM552.72 144V168.72H528V144H552.72Z" fill="white"/>
<path d="M600.72 144H576V168.72H600.72V144Z" fill="white"/>
<path fill-rule="evenodd" clip-rule="evenodd" d="M600.22 144.5H576.5V168.22H600.22V144.5ZM600.72 144V168.72H576V144H600.72Z" fill="white"/>
<path d="M216.72 168H192V192.72H216.72V168Z" fill="white"/>
<path fill-rule="evenodd" clip-rule="evenodd" d="M216.22 168.5H192.5V192.22H216.22V168.5ZM216.72 168V192.72H192V168H216.72Z" fill="white"/>
<path d="M240.72 168H216V192.72H240.72V168Z" fill="white"/>
<path fill-rule="evenodd" clip-rule="evenodd" d="M240.22 168.5H216.5V192.22H240.22V168.5ZM240.72 168V192.72H216V168H240.72Z" fill="white"/>
<path d="M288.72 168H264V192.72H288.72V168Z" fill="white"/>
<path fill-rule="evenodd" clip-rule="evenodd" d="M288.22 168.5H264.5V192.22H288.22V168.5ZM288.72 168V192.72H264V168H288.72Z" fill="white"/>
<path d="M384.72 168H360V192.72H384.72V168Z" fill="white"/>
<path fill-rule="evenodd" clip-rule="evenodd" d="M384.22 168.5H360.5V192.22H384.22V168.5ZM384.72 168V192.72H360V168H384.72Z" fill="white"/>
<path d="M408.72 168H384V192.72H408.72V168Z" fill="white"/>
<path fill-rule="evenodd" clip-rule="evenodd" d="M408.22 168.5H384.5V192.22H408.22V168.5ZM408.72 168V192.72H384V168H408.72Z" fill="white"/>
<path d="M504.72 168H480V192.72H504.72V168Z" fill="white"/>
<path fill-rule="evenodd" clip-rule="evenodd" d="M504.22 168.5H480.5V192.22H504.22V168.5ZM504.72 168V192.72H480V168H504.72Z" fill="white"/>
<path d="M528.72 168H504V192.72H528.72V168Z" fill="white"/>
<path fill-rule="evenodd" clip-rule="evenodd" d="M528.22 168.5H504.5V192.22H528.22V168.5ZM528.72 168V192.72H504V168H528.72Z" fill="white"/>
<path d="M552.72 168H528V192.72H552.72V168Z" fill="white"/>
<path fill-rule="evenodd" clip-rule="evenodd" d="M552.22 168.5H528.5V192.22H552.22V168.5ZM552.72 168V192.72H528V168H552.72Z" fill="white"/>
<path d="M576.72 168H552V192.72H576.72V168Z" fill="white"/>
<path fill-rule="evenodd" clip-rule="evenodd" d="M576.22 168.5H552.5V192.22H576.22V168.5ZM576.72 168V192.72H552V168H576.72Z" fill="white"/>
<path d="M72.72 192H48V216.72H72.72V192Z" fill="white"/>
<path fill-rule="evenodd" clip-rule="evenodd" d="M72.22 192.5H48.5V216.22H72.22V192.5ZM72.72 192V216.72H48V192H72.72Z" fill="white"/>
<path d="M96.72 192H72V216.72H96.72V192Z" fill="white"/>
<path fill-rule="evenodd" clip-rule="evenodd" d="M96.22 192.5H72.5V216.22H96.22V192.5ZM96.72 192V216.72H72V192H96.72Z" fill="white"/>
<path d="M120.72 192H96V216.72H120.72V192Z" fill="white"/>
<path fill-rule="evenodd" clip-rule="evenodd" d="M120.22 192.5H96.5V216.22H120.22V192.5ZM120.72 192V216.72H96V192H120.72Z" fill="white"/>
<path d="M168.72 192H144V216.72H168.72V192Z" fill="white"/>
<path fill-rule="evenodd" clip-rule="evenodd" d="M168.22 192.5H144.5V216.22H168.22V192.5ZM168.72 192V216.72H144V192H168.72Z" fill="white"/>
<path d="M216.72 192H192V216.72H216.72V192Z" fill="white"/>
<path fill-rule="evenodd" clip-rule="evenodd" d="M216.22 192.5H192.5V216.22H216.22V192.5ZM216.72 192V216.72H192V192H216.72Z" fill="white"/>
<path d="M264.72 192H240V216.72H264.72V192Z" fill="white"/>
<path fill-rule="evenodd" clip-rule="evenodd" d="M264.22 192.5H240.5V216.22H264.22V192.5ZM264.72 192V216.72H240V192H264.72Z" fill="white"/>
<path d="M360.72 192H336V216.72H360.72V192Z" fill="white"/>
<path fill-rule="evenodd" clip-rule="evenodd" d="M360.22 192.5H336.5V216.22H360.22V192.5ZM360.72 192V216.72H336V192H360.72Z" fill="white"/>
<path d="M432.72 192H408V216.72H432.72V192Z" fill="white"/>
<path fill-rule="evenodd" clip-rule="evenodd" d="M432.22 192.5H408.5V216.22H432.22V192.5ZM432.72 192V216.72H408V192H432.72Z" fill="white"/>
<path d="M456.72 192H432V216.72H456.72V192Z" fill="white"/>
<path fill-rule="evenodd" clip-rule="evenodd" d="M456.22 192.5H432.5V216.22H456.22V192.5ZM456.72 192V216.72H432V192H456.72Z" fill="white"/>
<path d="M480.72 192H456V216.72H480.72V192Z" fill="white"/>
<path fill-rule="evenodd" clip-rule="evenodd" d="M480.22 192.5H456.5V216.22H480.22V192.5ZM480.72 192V216.72H456V192H480.72Z" fill="white"/>
<path d="M552.72 192H528V216.72H552.72V192Z" fill="white"/>
<path fill-rule="evenodd" clip-rule="evenodd" d="M552.22 192.5H528.5V216.22H552.22V192.5ZM552.72 192V216.72H528V192H552.72Z" fill="white"/>
<path d="M576.72 192H552V216.72H576.72V192Z" fill="white"/>
<path fill-rule="evenodd" clip-rule="evenodd" d="M576.22 192.5H552.5V216.22H576.22V192.5ZM576.72 192V216.72H552V192H576.72Z" fill="white"/>
<path d="M600.72 192H576V216.72H600.72V192Z" fill="white"/>
<path fill-rule="evenodd" clip-rule="evenodd" d="M600.22 192.5H576.5V216.22H600.22V192.5ZM600.72 192V216.72H576V192H600.72Z" fill="white"/>
<path d="M624.72 192H600V216.72H624.72V192Z" fill="white"/>
<path fill-rule="evenodd" clip-rule="evenodd" d="M624.22 192.5H600.5V216.22H624.22V192.5ZM624.72 192V216.72H600V192H624.72Z" fill="white"/>
<path d="M648.72 192H624V216.72H648.72V192Z" fill="white"/>
<path fill-rule="evenodd" clip-rule="evenodd" d="M648.22 192.5H624.5V216.22H648.22V192.5ZM648.72 192V216.72H624V192H648.72Z" fill="white"/>
<path d="M672.72 192H648V216.72H672.72V192Z" fill="white"/>
<path fill-rule="evenodd" clip-rule="evenodd" d="M672.22 192.5H648.5V216.22H672.22V192.5ZM672.72 192V216.72H648V192H672.72Z" fill="white"/>
<path d="M744.72 192H720V216.72H744.72V192Z" fill="white"/>
<path fill-rule="evenodd" clip-rule="evenodd" d="M744.22 192.5H720.5V216.22H744.22V192.5ZM744.72 192V216.72H720V192H744.72Z" fill="white"/>
<path d="M768.72 192H744V216.72H768.72V192Z" fill="white"/>
<path fill-rule="evenodd" clip-rule="evenodd" d="M768.22 192.5H744.5V216.22H768.22V192.5ZM768.72 192V216.72H744V192H768.72Z" fill="white"/>
<path d="M792.72 192H768V216.72H792.72V192Z" fill="white"/>
<path fill-rule="evenodd" clip-rule="evenodd" d="M792.22 192.5H768.5V216.22H792.22V192.5ZM792.72 192V216.72H768V192H792.72Z" fill="white"/>
<path d="M48.72 216H24V240.72H48.72V216Z" fill="white"/>
<path fill-rule="evenodd" clip-rule="evenodd" d="M48.22 216.5H24.5V240.22H48.22V216.5ZM48.72 216V240.72H24V216H48.72Z" fill="white"/>
<path d="M72.72 216H48V240.72H72.72V216Z" fill="white"/>
<path fill-rule="evenodd" clip-rule="evenodd" d="M72.22 216.5H48.5V240.22H72.22V216.5ZM72.72 216V240.72H48V216H72.72Z" fill="white"/>
<path d="M144.72 216H120V240.72H144.72V216Z" fill="white"/>
<path fill-rule="evenodd" clip-rule="evenodd" d="M144.22 216.5H120.5V240.22H144.22V216.5ZM144.72 216V240.72H120V216H144.72Z" fill="white"/>
<path d="M288.72 216H264V240.72H288.72V216Z" fill="white"/>
<path fill-rule="evenodd" clip-rule="evenodd" d="M288.22 216.5H264.5V240.22H288.22V216.5ZM288.72 216V240.72H264V216H288.72Z" fill="white"/>
<path d="M312.72 216H288V240.72H312.72V216Z" fill="white"/>
<path fill-rule="evenodd" clip-rule="evenodd" d="M312.22 216.5H288.5V240.22H312.22V216.5ZM312.72 216V240.72H288V216H312.72Z" fill="white"/>
<path d="M336.72 216H312V240.72H336.72V216Z" fill="white"/>
<path fill-rule="evenodd" clip-rule="evenodd" d="M336.22 216.5H312.5V240.22H336.22V216.5ZM336.72 216V240.72H312V216H336.72Z" fill="white"/>
<path d="M384.72 216H360V240.72H384.72V216Z" fill="white"/>
<path fill-rule="evenodd" clip-rule="evenodd" d="M384.22 216.5H360.5V240.22H384.22V216.5ZM384.72 216V240.72H360V216H384.72Z" fill="white"/>
<path d="M408.72 216H384V240.72H408.72V216Z" fill="white"/>
<path fill-rule="evenodd" clip-rule="evenodd" d="M408.22 216.5H384.5V240.22H408.22V216.5ZM408.72 216V240.72H384V216H408.72Z" fill="white"/>
<path d="M504.72 216H480V240.72H504.72V216Z" fill="white"/>
<path fill-rule="evenodd" clip-rule="evenodd" d="M504.22 216.5H480.5V240.22H504.22V216.5ZM504.72 216V240.72H480V216H504.72Z" fill="white"/>
<path d="M528.72 216H504V240.72H528.72V216Z" fill="white"/>
<path fill-rule="evenodd" clip-rule="evenodd" d="M528.22 216.5H504.5V240.22H528.22V216.5ZM528.72 216V240.72H504V216H528.72Z" fill="white"/>
<path d="M552.72 216H528V240.72H552.72V216Z" fill="white"/>
<path fill-rule="evenodd" clip-rule="evenodd" d="M552.22 216.5H528.5V240.22H552.22V216.5ZM552.72 216V240.72H528V216H552.72Z" fill="white"/>
<path d="M576.72 216H552V240.72H576.72V216Z" fill="white"/>
<path fill-rule="evenodd" clip-rule="evenodd" d="M576.22 216.5H552.5V240.22H576.22V216.5ZM576.72 216V240.72H552V216H576.72Z" fill="white"/>
<path d="M624.72 216H600V240.72H624.72V216Z" fill="white"/>
<path fill-rule="evenodd" clip-rule="evenodd" d="M624.22 216.5H600.5V240.22H624.22V216.5ZM624.72 216V240.72H600V216H624.72Z" fill="white"/>
<path d="M648.72 216H624V240.72H648.72V216Z" fill="white"/>
<path fill-rule="evenodd" clip-rule="evenodd" d="M648.22 216.5H624.5V240.22H648.22V216.5ZM648.72 216V240.72H624V216H648.72Z" fill="white"/>
<path d="M744.72 216H720V240.72H744.72V216Z" fill="white"/>
<path fill-rule="evenodd" clip-rule="evenodd" d="M744.22 216.5H720.5V240.22H744.22V216.5ZM744.72 216V240.72H720V216H744.72Z" fill="white"/>
<path d="M792.72 216H768V240.72H792.72V216Z" fill="white"/>
<path fill-rule="evenodd" clip-rule="evenodd" d="M792.22 216.5H768.5V240.22H792.22V216.5ZM792.72 216V240.72H768V216H792.72Z" fill="white"/>
<path d="M72.72 240H48V264.72H72.72V240Z" fill="white"/>
<path fill-rule="evenodd" clip-rule="evenodd" d="M72.22 240.5H48.5V264.22H72.22V240.5ZM72.72 240V264.72H48V240H72.72Z" fill="white"/>
<path d="M96.72 240H72V264.72H96.72V240Z" fill="white"/>
<path fill-rule="evenodd" clip-rule="evenodd" d="M96.22 240.5H72.5V264.22H96.22V240.5ZM96.72 240V264.72H72V240H96.72Z" fill="white"/>
<path d="M168.72 240H144V264.72H168.72V240Z" fill="white"/>
<path fill-rule="evenodd" clip-rule="evenodd" d="M168.22 240.5H144.5V264.22H168.22V240.5ZM168.72 240V264.72H144V240H168.72Z" fill="white"/>
<path d="M240.72 240H216V264.72H240.72V240Z" fill="white"/>
<path fill-rule="evenodd" clip-rule="evenodd" d="M240.22 240.5H216.5V264.22H240.22V240.5ZM240.72 240V264.72H216V240H240.72Z" fill="white"/>
<path d="M264.72 240H240V264.72H264.72V240Z" fill="white"/>
<path fill-rule="evenodd" clip-rule="evenodd" d="M264.22 240.5H240.5V264.22H264.22V240.5ZM264.72 240V264.72H240V240H264.72Z" fill="white"/>
<path d="M384.72 240H360V264.72H384.72V240Z" fill="white"/>
<path fill-rule="evenodd" clip-rule="evenodd" d="M384.22 240.5H360.5V264.22H384.22V240.5ZM384.72 240V264.72H360V240H384.72Z" fill="white"/>
<path d="M456.72 240H432V264.72H456.72V240Z" fill="white"/>
<path fill-rule="evenodd" clip-rule="evenodd" d="M456.22 240.5H432.5V264.22H456.22V240.5ZM456.72 240V264.72H432V240H456.72Z" fill="white"/>
<path d="M480.72 240H456V264.72H480.72V240Z" fill="white"/>
<path fill-rule="evenodd" clip-rule="evenodd" d="M480.22 240.5H456.5V264.22H480.22V240.5ZM480.72 240V264.72H456V240H480.72Z" fill="white"/>
<path d="M504.72 240H480V264.72H504.72V240Z" fill="white"/>
<path fill-rule="evenodd" clip-rule="evenodd" d="M504.22 240.5H480.5V264.22H504.22V240.5ZM504.72 240V264.72H480V240H504.72Z" fill="white"/>
<path d="M528.72 240H504V264.72H528.72V240Z" fill="white"/>
<path fill-rule="evenodd" clip-rule="evenodd" d="M528.22 240.5H504.5V264.22H528.22V240.5ZM528.72 240V264.72H504V240H528.72Z" fill="white"/>
<path d="M600.72 240H576V264.72H600.72V240Z" fill="white"/>
<path fill-rule="evenodd" clip-rule="evenodd" d="M600.22 240.5H576.5V264.22H600.22V240.5ZM600.72 240V264.72H576V240H600.72Z" fill="white"/>
<path d="M672.72 240H648V264.72H672.72V240Z" fill="white"/>
<path fill-rule="evenodd" clip-rule="evenodd" d="M672.22 240.5H648.5V264.22H672.22V240.5ZM672.72 240V264.72H648V240H672.72Z" fill="white"/>
<path d="M720.72 240H696V264.72H720.72V240Z" fill="white"/>
<path fill-rule="evenodd" clip-rule="evenodd" d="M720.22 240.5H696.5V264.22H720.22V240.5ZM720.72 240V264.72H696V240H720.72Z" fill="white"/>
<path d="M744.72 240H720V264.72H744.72V240Z" fill="white"/>
<path fill-rule="evenodd" clip-rule="evenodd" d="M744.22 240.5H720.5V264.22H744.22V240.5ZM744.72 240V264.72H720V240H744.72Z" fill="white"/>
<path d="M768.72 240H744V264.72H768.72V240Z" fill="white"/>
<path fill-rule="evenodd" clip-rule="evenodd" d="M768.22 240.5H744.5V264.22H768.22V240.5ZM768.72 240V264.72H744V240H768.72Z" fill="white"/>
<path d="M24.72 264H0V288.72H24.72V264Z" fill="white"/>
<path fill-rule="evenodd" clip-rule="evenodd" d="M24.22 264.5H0.5V288.22H24.22V264.5ZM24.72 264V288.72H0V264H24.72Z" fill="white"/>
<path d="M72.72 264H48V288.72H72.72V264Z" fill="white"/>
<path fill-rule="evenodd" clip-rule="evenodd" d="M72.22 264.5H48.5V288.22H72.22V264.5ZM72.72 264V288.72H48V264H72.72Z" fill="white"/>
<path d="M120.72 264H96V288.72H120.72V264Z" fill="white"/>
<path fill-rule="evenodd" clip-rule="evenodd" d="M120.22 264.5H96.5V288.22H120.22V264.5ZM120.72 264V288.72H96V264H120.72Z" fill="white"/>
<path d="M144.72 264H120V288.72H144.72V264Z" fill="white"/>
<path fill-rule="evenodd" clip-rule="evenodd" d="M144.22 264.5H120.5V288.22H144.22V264.5ZM144.72 264V288.72H120V264H144.72Z" fill="white"/>
<path d="M240.72 264H216V288.72H240.72V264Z" fill="white"/>
<path fill-rule="evenodd" clip-rule="evenodd" d="M240.22 264.5H216.5V288.22H240.22V264.5ZM240.72 264V288.72H216V264H240.72Z" fill="white"/>
<path d="M288.72 264H264V288.72H288.72V264Z" fill="white"/>
<path fill-rule="evenodd" clip-rule="evenodd" d="M288.22 264.5H264.5V288.22H288.22V264.5ZM288.72 264V288.72H264V264H288.72Z" fill="white"/>
<path d="M312.72 264H288V288.72H312.72V264Z" fill="white"/>
<path fill-rule="evenodd" clip-rule="evenodd" d="M312.22 264.5H288.5V288.22H312.22V264.5ZM312.72 264V288.72H288V264H312.72Z" fill="white"/>
<path d="M336.72 264H312V288.72H336.72V264Z" fill="white"/>
<path fill-rule="evenodd" clip-rule="evenodd" d="M336.22 264.5H312.5V288.22H336.22V264.5ZM336.72 264V288.72H312V264H336.72Z" fill="white"/>
<path d="M360.72 264H336V288.72H360.72V264Z" fill="white"/>
<path fill-rule="evenodd" clip-rule="evenodd" d="M360.22 264.5H336.5V288.22H360.22V264.5ZM360.72 264V288.72H336V264H360.72Z" fill="white"/>
<path d="M384.72 264H360V288.72H384.72V264Z" fill="white"/>
<path fill-rule="evenodd" clip-rule="evenodd" d="M384.22 264.5H360.5V288.22H384.22V264.5ZM384.72 264V288.72H360V264H384.72Z" fill="white"/>
<path d="M408.72 264H384V288.72H408.72V264Z" fill="white"/>
<path fill-rule="evenodd" clip-rule="evenodd" d="M408.22 264.5H384.5V288.22H408.22V264.5ZM408.72 264V288.72H384V264H408.72Z" fill="white"/>
<path d="M456.72 264H432V288.72H456.72V264Z" fill="white"/>
<path fill-rule="evenodd" clip-rule="evenodd" d="M456.22 264.5H432.5V288.22H456.22V264.5ZM456.72 264V288.72H432V264H456.72Z" fill="white"/>
<path d="M504.72 264H480V288.72H504.72V264Z" fill="white"/>
<path fill-rule="evenodd" clip-rule="evenodd" d="M504.22 264.5H480.5V288.22H504.22V264.5ZM504.72 264V288.72H480V264H504.72Z" fill="white"/>
<path d="M528.72 264H504V288.72H528.72V264Z" fill="white"/>
<path fill-rule="evenodd" clip-rule="evenodd" d="M528.22 264.5H504.5V288.22H528.22V264.5ZM528.72 264V288.72H504V264H528.72Z" fill="white"/>
<path d="M552.72 264H528V288.72H552.72V264Z" fill="white"/>
<path fill-rule="evenodd" clip-rule="evenodd" d="M552.22 264.5H528.5V288.22H552.22V264.5ZM552.72 264V288.72H528V264H552.72Z" fill="white"/>
<path d="M600.72 264H576V288.72H600.72V264Z" fill="white"/>
<path fill-rule="evenodd" clip-rule="evenodd" d="M600.22 264.5H576.5V288.22H600.22V264.5ZM600.72 264V288.72H576V264H600.72Z" fill="white"/>
<path d="M624.72 264H600V288.72H624.72V264Z" fill="white"/>
<path fill-rule="evenodd" clip-rule="evenodd" d="M624.22 264.5H600.5V288.22H624.22V264.5ZM624.72 264V288.72H600V264H624.72Z" fill="white"/>
<path d="M648.72 264H624V288.72H648.72V264Z" fill="white"/>
<path fill-rule="evenodd" clip-rule="evenodd" d="M648.22 264.5H624.5V288.22H648.22V264.5ZM648.72 264V288.72H624V264H648.72Z" fill="white"/>
<path d="M720.72 264H696V288.72H720.72V264Z" fill="white"/>
<path fill-rule="evenodd" clip-rule="evenodd" d="M720.22 264.5H696.5V288.22H720.22V264.5ZM720.72 264V288.72H696V264H720.72Z" fill="white"/>
<path d="M744.72 264H720V288.72H744.72V264Z" fill="white"/>
<path fill-rule="evenodd" clip-rule="evenodd" d="M744.22 264.5H720.5V288.22H744.22V264.5ZM744.72 264V288.72H720V264H744.72Z" fill="white"/>
<path d="M792.72 264H768V288.72H792.72V264Z" fill="white"/>
<path fill-rule="evenodd" clip-rule="evenodd" d="M792.22 264.5H768.5V288.22H792.22V264.5ZM792.72 264V288.72H768V264H792.72Z" fill="white"/>
<path d="M72.72 288H48V312.72H72.72V288Z" fill="white"/>
<path fill-rule="evenodd" clip-rule="evenodd" d="M72.22 288.5H48.5V312.22H72.22V288.5ZM72.72 288V312.72H48V288H72.72Z" fill="white"/>
<path d="M144.72 288H120V312.72H144.72V288Z" fill="white"/>
<path fill-rule="evenodd" clip-rule="evenodd" d="M144.22 288.5H120.5V312.22H144.22V288.5ZM144.72 288V312.72H120V288H144.72Z" fill="white"/>
<path d="M168.72 288H144V312.72H168.72V288Z" fill="white"/>
<path fill-rule="evenodd" clip-rule="evenodd" d="M168.22 288.5H144.5V312.22H168.22V288.5ZM168.72 288V312.72H144V288H168.72Z" fill="white"/>
<path d="M192.72 288H168V312.72H192.72V288Z" fill="white"/>
<path fill-rule="evenodd" clip-rule="evenodd" d="M192.22 288.5H168.5V312.22H192.22V288.5ZM192.72 288V312.72H168V288H192.72Z" fill="white"/>
<path d="M216.72 288H192V312.72H216.72V288Z" fill="white"/>
<path fill-rule="evenodd" clip-rule="evenodd" d="M216.22 288.5H192.5V312.22H216.22V288.5ZM216.72 288V312.72H192V288H216.72Z" fill="white"/>
<path d="M240.72 288H216V312.72H240.72V288Z" fill="white"/>
<path fill-rule="evenodd" clip-rule="evenodd" d="M240.22 288.5H216.5V312.22H240.22V288.5ZM240.72 288V312.72H216V288H240.72Z" fill="white"/>
<path d="M264.72 288H240V312.72H264.72V288Z" fill="white"/>
<path fill-rule="evenodd" clip-rule="evenodd" d="M264.22 288.5H240.5V312.22H264.22V288.5ZM264.72 288V312.72H240V288H264.72Z" fill="white"/>
<path d="M288.72 288H264V312.72H288.72V288Z" fill="white"/>
<path fill-rule="evenodd" clip-rule="evenodd" d="M288.22 288.5H264.5V312.22H288.22V288.5ZM288.72 288V312.72H264V288H288.72Z" fill="white"/>
<path d="M360.72 288H336V312.72H360.72V288Z" fill="white"/>
<path fill-rule="evenodd" clip-rule="evenodd" d="M360.22 288.5H336.5V312.22H360.22V288.5ZM360.72 288V312.72H336V288H360.72Z" fill="white"/>
<path d="M408.72 288H384V312.72H408.72V288Z" fill="white"/>
<path fill-rule="evenodd" clip-rule="evenodd" d="M408.22 288.5H384.5V312.22H408.22V288.5ZM408.72 288V312.72H384V288H408.72Z" fill="white"/>
<path d="M456.72 288H432V312.72H456.72V288Z" fill="white"/>
<path fill-rule="evenodd" clip-rule="evenodd" d="M456.22 288.5H432.5V312.22H456.22V288.5ZM456.72 288V312.72H432V288H456.72Z" fill="white"/>
<path d="M528.72 288H504V312.72H528.72V288Z" fill="white"/>
<path fill-rule="evenodd" clip-rule="evenodd" d="M528.22 288.5H504.5V312.22H528.22V288.5ZM528.72 288V312.72H504V288H528.72Z" fill="white"/>
<path d="M576.72 288H552V312.72H576.72V288Z" fill="white"/>
<path fill-rule="evenodd" clip-rule="evenodd" d="M576.22 288.5H552.5V312.22H576.22V288.5ZM576.72 288V312.72H552V288H576.72Z" fill="white"/>
<path d="M600.72 288H576V312.72H600.72V288Z" fill="white"/>
<path fill-rule="evenodd" clip-rule="evenodd" d="M600.22 288.5H576.5V312.22H600.22V288.5ZM600.72 288V312.72H576V288H600.72Z" fill="white"/>
<path d="M624.72 288H600V312.72H624.72V288Z" fill="white"/>
<path fill-rule="evenodd" clip-rule="evenodd" d="M624.22 288.5H600.5V312.22H624.22V288.5ZM624.72 288V312.72H600V288H624.72Z" fill="white"/>
<path d="M720.72 288H696V312.72H720.72V288Z" fill="white"/>
<path fill-rule="evenodd" clip-rule="evenodd" d="M720.22 288.5H696.5V312.22H720.22V288.5ZM720.72 288V312.72H696V288H720.72Z" fill="white"/>
<path d="M768.72 288H744V312.72H768.72V288Z" fill="white"/>
<path fill-rule="evenodd" clip-rule="evenodd" d="M768.22 288.5H744.5V312.22H768.22V288.5ZM768.72 288V312.72H744V288H768.72Z" fill="white"/>
<path d="M24.72 312H0V336.72H24.72V312Z" fill="white"/>
<path fill-rule="evenodd" clip-rule="evenodd" d="M24.22 312.5H0.5V336.22H24.22V312.5ZM24.72 312V336.72H0V312H24.72Z" fill="white"/>
<path d="M48.72 312H24V336.72H48.72V312Z" fill="white"/>
<path fill-rule="evenodd" clip-rule="evenodd" d="M48.22 312.5H24.5V336.22H48.22V312.5ZM48.72 312V336.72H24V312H48.72Z" fill="white"/>
<path d="M144.72 312H120V336.72H144.72V312Z" fill="white"/>
<path fill-rule="evenodd" clip-rule="evenodd" d="M144.22 312.5H120.5V336.22H144.22V312.5ZM144.72 312V336.72H120V312H144.72Z" fill="white"/>
<path d="M192.72 312H168V336.72H192.72V312Z" fill="white"/>
<path fill-rule="evenodd" clip-rule="evenodd" d="M192.22 312.5H168.5V336.22H192.22V312.5ZM192.72 312V336.72H168V312H192.72Z" fill="white"/>
<path d="M264.72 312H240V336.72H264.72V312Z" fill="white"/>
<path fill-rule="evenodd" clip-rule="evenodd" d="M264.22 312.5H240.5V336.22H264.22V312.5ZM264.72 312V336.72H240V312H264.72Z" fill="white"/>
<path d="M288.72 312H264V336.72H288.72V312Z" fill="white"/>
<path fill-rule="evenodd" clip-rule="evenodd" d="M288.22 312.5H264.5V336.22H288.22V312.5ZM288.72 312V336.72H264V312H288.72Z" fill="white"/>
<path d="M312.72 312H288V336.72H312.72V312Z" fill="white"/>
<path fill-rule="evenodd" clip-rule="evenodd" d="M312.22 312.5H288.5V336.22H312.22V312.5ZM312.72 312V336.72H288V312H312.72Z" fill="white"/>
<path d="M360.72 312H336V336.72H360.72V312Z" fill="white"/>
<path fill-rule="evenodd" clip-rule="evenodd" d="M360.22 312.5H336.5V336.22H360.22V312.5ZM360.72 312V336.72H336V312H360.72Z" fill="white"/>
<path d="M456.72 312H432V336.72H456.72V312Z" fill="white"/>
<path fill-rule="evenodd" clip-rule="evenodd" d="M456.22 312.5H432.5V336.22H456.22V312.5ZM456.72 312V336.72H432V312H456.72Z" fill="white"/>
<path d="M504.72 312H480V336.72H504.72V312Z" fill="white"/>
<path fill-rule="evenodd" clip-rule="evenodd" d="M504.22 312.5H480.5V336.22H504.22V312.5ZM504.72 312V336.72H480V312H504.72Z" fill="white"/>
<path d="M552.72 312H528V336.72H552.72V312Z" fill="white"/>
<path fill-rule="evenodd" clip-rule="evenodd" d="M552.22 312.5H528.5V336.22H552.22V312.5ZM552.72 312V336.72H528V312H552.72Z" fill="white"/>
<path d="M576.72 312H552V336.72H576.72V312Z" fill="white"/>
<path fill-rule="evenodd" clip-rule="evenodd" d="M576.22 312.5H552.5V336.22H576.22V312.5ZM576.72 312V336.72H552V312H576.72Z" fill="white"/>
<path d="M600.72 312H576V336.72H600.72V312Z" fill="white"/>
<path fill-rule="evenodd" clip-rule="evenodd" d="M600.22 312.5H576.5V336.22H600.22V312.5ZM600.72 312V336.72H576V312H600.72Z" fill="white"/>
<path d="M648.72 312H624V336.72H648.72V312Z" fill="white"/>
<path fill-rule="evenodd" clip-rule="evenodd" d="M648.22 312.5H624.5V336.22H648.22V312.5ZM648.72 312V336.72H624V312H648.72Z" fill="white"/>
<path d="M672.72 312H648V336.72H672.72V312Z" fill="white"/>
<path fill-rule="evenodd" clip-rule="evenodd" d="M672.22 312.5H648.5V336.22H672.22V312.5ZM672.72 312V336.72H648V312H672.72Z" fill="white"/>
<path d="M720.72 312H696V336.72H720.72V312Z" fill="white"/>
<path fill-rule="evenodd" clip-rule="evenodd" d="M720.22 312.5H696.5V336.22H720.22V312.5ZM720.72 312V336.72H696V312H720.72Z" fill="white"/>
<path d="M744.72 312H720V336.72H744.72V312Z" fill="white"/>
<path fill-rule="evenodd" clip-rule="evenodd" d="M744.22 312.5H720.5V336.22H744.22V312.5ZM744.72 312V336.72H720V312H744.72Z" fill="white"/>
<path d="M792.72 312H768V336.72H792.72V312Z" fill="white"/>
<path fill-rule="evenodd" clip-rule="evenodd" d="M792.22 312.5H768.5V336.22H792.22V312.5ZM792.72 312V336.72H768V312H792.72Z" fill="white"/>
<path d="M24.72 336H0V360.72H24.72V336Z" fill="white"/>
<path fill-rule="evenodd" clip-rule="evenodd" d="M24.22 336.5H0.5V360.22H24.22V336.5ZM24.72 336V360.72H0V336H24.72Z" fill="white"/>
<path d="M72.72 336H48V360.72H72.72V336Z" fill="white"/>
<path fill-rule="evenodd" clip-rule="evenodd" d="M72.22 336.5H48.5V360.22H72.22V336.5ZM72.72 336V360.72H48V336H72.72Z" fill="white"/>
<path d="M96.72 336H72V360.72H96.72V336Z" fill="white"/>
<path fill-rule="evenodd" clip-rule="evenodd" d="M96.22 336.5H72.5V360.22H96.22V336.5ZM96.72 336V360.72H72V336H96.72Z" fill="white"/>
<path d="M144.72 336H120V360.72H144.72V336Z" fill="white"/>
<path fill-rule="evenodd" clip-rule="evenodd" d="M144.22 336.5H120.5V360.22H144.22V336.5ZM144.72 336V360.72H120V336H144.72Z" fill="white"/>
<path d="M168.72 336H144V360.72H168.72V336Z" fill="white"/>
<path fill-rule="evenodd" clip-rule="evenodd" d="M168.22 336.5H144.5V360.22H168.22V336.5ZM168.72 336V360.72H144V336H168.72Z" fill="white"/>
<path d="M288.72 336H264V360.72H288.72V336Z" fill="white"/>
<path fill-rule="evenodd" clip-rule="evenodd" d="M288.22 336.5H264.5V360.22H288.22V336.5ZM288.72 336V360.72H264V336H288.72Z" fill="white"/>
<path d="M360.72 336H336V360.72H360.72V336Z" fill="white"/>
<path fill-rule="evenodd" clip-rule="evenodd" d="M360.22 336.5H336.5V360.22H360.22V336.5ZM360.72 336V360.72H336V336H360.72Z" fill="white"/>
<path d="M408.72 336H384V360.72H408.72V336Z" fill="white"/>
<path fill-rule="evenodd" clip-rule="evenodd" d="M408.22 336.5H384.5V360.22H408.22V336.5ZM408.72 336V360.72H384V336H408.72Z" fill="white"/>
<path d="M456.72 336H432V360.72H456.72V336Z" fill="white"/>
<path fill-rule="evenodd" clip-rule="evenodd" d="M456.22 336.5H432.5V360.22H456.22V336.5ZM456.72 336V360.72H432V336H456.72Z" fill="white"/>
<path d="M480.72 336H456V360.72H480.72V336Z" fill="white"/>
<path fill-rule="evenodd" clip-rule="evenodd" d="M480.22 336.5H456.5V360.22H480.22V336.5ZM480.72 336V360.72H456V336H480.72Z" fill="white"/>
<path d="M552.72 336H528V360.72H552.72V336Z" fill="white"/>
<path fill-rule="evenodd" clip-rule="evenodd" d="M552.22 336.5H528.5V360.22H552.22V336.5ZM552.72 336V360.72H528V336H552.72Z" fill="white"/>
<path d="M624.72 336H600V360.72H624.72V336Z" fill="white"/>
<path fill-rule="evenodd" clip-rule="evenodd" d="M624.22 336.5H600.5V360.22H624.22V336.5ZM624.72 336V360.72H600V336H624.72Z" fill="white"/>
<path d="M720.72 336H696V360.72H720.72V336Z" fill="white"/>
<path fill-rule="evenodd" clip-rule="evenodd" d="M720.22 336.5H696.5V360.22H720.22V336.5ZM720.72 336V360.72H696V336H720.72Z" fill="white"/>
<path d="M744.72 336H720V360.72H744.72V336Z" fill="white"/>
<path fill-rule="evenodd" clip-rule="evenodd" d="M744.22 336.5H720.5V360.22H744.22V336.5ZM744.72 336V360.72H720V336H744.72Z" fill="white"/>
<path d="M768.72 336H744V360.72H768.72V336Z" fill="white"/>
<path fill-rule="evenodd" clip-rule="evenodd" d="M768.22 336.5H744.5V360.22H768.22V336.5ZM768.72 336V360.72H744V336H768.72Z" fill="white"/>
<path d="M72.72 360H48V384.72H72.72V360Z" fill="white"/>
<path fill-rule="evenodd" clip-rule="evenodd" d="M72.22 360.5H48.5V384.22H72.22V360.5ZM72.72 360V384.72H48V360H72.72Z" fill="white"/>
<path d="M96.72 360H72V384.72H96.72V360Z" fill="white"/>
<path fill-rule="evenodd" clip-rule="evenodd" d="M96.22 360.5H72.5V384.22H96.22V360.5ZM96.72 360V384.72H72V360H96.72Z" fill="white"/>
<path d="M192.72 360H168V384.72H192.72V360Z" fill="white"/>
<path fill-rule="evenodd" clip-rule="evenodd" d="M192.22 360.5H168.5V384.22H192.22V360.5ZM192.72 360V384.72H168V360H192.72Z" fill="white"/>
<path d="M216.72 360H192V384.72H216.72V360Z" fill="white"/>
<path fill-rule="evenodd" clip-rule="evenodd" d="M216.22 360.5H192.5V384.22H216.22V360.5ZM216.72 360V384.72H192V360H216.72Z" fill="white"/>
<path d="M264.72 360H240V384.72H264.72V360Z" fill="white"/>
<path fill-rule="evenodd" clip-rule="evenodd" d="M264.22 360.5H240.5V384.22H264.22V360.5ZM264.72 360V384.72H240V360H264.72Z" fill="white"/>
<path d="M288.72 360H264V384.72H288.72V360Z" fill="white"/>
<path fill-rule="evenodd" clip-rule="evenodd" d="M288.22 360.5H264.5V384.22H288.22V360.5ZM288.72 360V384.72H264V360H288.72Z" fill="white"/>
<path d="M360.72 360H336V384.72H360.72V360Z" fill="white"/>
<path fill-rule="evenodd" clip-rule="evenodd" d="M360.22 360.5H336.5V384.22H360.22V360.5ZM360.72 360V384.72H336V360H360.72Z" fill="white"/>
<path d="M384.72 360H360V384.72H384.72V360Z" fill="white"/>
<path fill-rule="evenodd" clip-rule="evenodd" d="M384.22 360.5H360.5V384.22H384.22V360.5ZM384.72 360V384.72H360V360H384.72Z" fill="white"/>
<path d="M408.72 360H384V384.72H408.72V360Z" fill="white"/>
<path fill-rule="evenodd" clip-rule="evenodd" d="M408.22 360.5H384.5V384.22H408.22V360.5ZM408.72 360V384.72H384V360H408.72Z" fill="white"/>
<path d="M432.72 360H408V384.72H432.72V360Z" fill="white"/>
<path fill-rule="evenodd" clip-rule="evenodd" d="M432.22 360.5H408.5V384.22H432.22V360.5ZM432.72 360V384.72H408V360H432.72Z" fill="white"/>
<path d="M456.72 360H432V384.72H456.72V360Z" fill="white"/>
<path fill-rule="evenodd" clip-rule="evenodd" d="M456.22 360.5H432.5V384.22H456.22V360.5ZM456.72 360V384.72H432V360H456.72Z" fill="white"/>
<path d="M480.72 360H456V384.72H480.72V360Z" fill="white"/>
<path fill-rule="evenodd" clip-rule="evenodd" d="M480.22 360.5H456.5V384.22H480.22V360.5ZM480.72 360V384.72H456V360H480.72Z" fill="white"/>
<path d="M504.72 360H480V384.72H504.72V360Z" fill="white"/>
<path fill-rule="evenodd" clip-rule="evenodd" d="M504.22 360.5H480.5V384.22H504.22V360.5ZM504.72 360V384.72H480V360H504.72Z" fill="white"/>
<path d="M528.72 360H504V384.72H528.72V360Z" fill="white"/>
<path fill-rule="evenodd" clip-rule="evenodd" d="M528.22 360.5H504.5V384.22H528.22V360.5ZM528.72 360V384.72H504V360H528.72Z" fill="white"/>
<path d="M552.72 360H528V384.72H552.72V360Z" fill="white"/>
<path fill-rule="evenodd" clip-rule="evenodd" d="M552.22 360.5H528.5V384.22H552.22V360.5ZM552.72 360V384.72H528V360H552.72Z" fill="white"/>
<path d="M624.72 360H600V384.72H624.72V360Z" fill="white"/>
<path fill-rule="evenodd" clip-rule="evenodd" d="M624.22 360.5H600.5V384.22H624.22V360.5ZM624.72 360V384.72H600V360H624.72Z" fill="white"/>
<path d="M672.72 360H648V384.72H672.72V360Z" fill="white"/>
<path fill-rule="evenodd" clip-rule="evenodd" d="M672.22 360.5H648.5V384.22H672.22V360.5ZM672.72 360V384.72H648V360H672.72Z" fill="white"/>
<path d="M744.72 360H720V384.72H744.72V360Z" fill="white"/>
<path fill-rule="evenodd" clip-rule="evenodd" d="M744.22 360.5H720.5V384.22H744.22V360.5ZM744.72 360V384.72H720V360H744.72Z" fill="white"/>
<path d="M768.72 360H744V384.72H768.72V360Z" fill="white"/>
<path fill-rule="evenodd" clip-rule="evenodd" d="M768.22 360.5H744.5V384.22H768.22V360.5ZM768.72 360V384.72H744V360H768.72Z" fill="white"/>
<path d="M792.72 360H768V384.72H792.72V360Z" fill="white"/>
<path fill-rule="evenodd" clip-rule="evenodd" d="M792.22 360.5H768.5V384.22H792.22V360.5ZM792.72 360V384.72H768V360H792.72Z" fill="white"/>
<path d="M24.72 384H0V408.72H24.72V384Z" fill="white"/>
<path fill-rule="evenodd" clip-rule="evenodd" d="M24.22 384.5H0.5V408.22H24.22V384.5ZM24.72 384V408.72H0V384H24.72Z" fill="white"/>
<path d="M48.72 384H24V408.72H48.72V384Z" fill="white"/>
<path fill-rule="evenodd" clip-rule="evenodd" d="M48.22 384.5H24.5V408.22H48.22V384.5ZM48.72 384V408.72H24V384H48.72Z" fill="white"/>
<path d="M96.72 384H72V408.72H96.72V384Z" fill="white"/>
<path fill-rule="evenodd" clip-rule="evenodd" d="M96.22 384.5H72.5V408.22H96.22V384.5ZM96.72 384V408.72H72V384H96.72Z" fill="white"/>
<path d="M168.72 384H144V408.72H168.72V384Z" fill="white"/>
<path fill-rule="evenodd" clip-rule="evenodd" d="M168.22 384.5H144.5V408.22H168.22V384.5ZM168.72 384V408.72H144V384H168.72Z" fill="white"/>
<path d="M192.72 384H168V408.72H192.72V384Z" fill="white"/>
<path fill-rule="evenodd" clip-rule="evenodd" d="M192.22 384.5H168.5V408.22H192.22V384.5ZM192.72 384V408.72H168V384H192.72Z" fill="white"/>
<path d="M240.72 384H216V408.72H240.72V384Z" fill="white"/>
<path fill-rule="evenodd" clip-rule="evenodd" d="M240.22 384.5H216.5V408.22H240.22V384.5ZM240.72 384V408.72H216V384H240.72Z" fill="white"/>
<path d="M264.72 384H240V408.72H264.72V384Z" fill="white"/>
<path fill-rule="evenodd" clip-rule="evenodd" d="M264.22 384.5H240.5V408.22H264.22V384.5ZM264.72 384V408.72H240V384H264.72Z" fill="white"/>
<path d="M288.72 384H264V408.72H288.72V384Z" fill="white"/>
<path fill-rule="evenodd" clip-rule="evenodd" d="M288.22 384.5H264.5V408.22H288.22V384.5ZM288.72 384V408.72H264V384H288.72Z" fill="white"/>
<path d="M312.72 384H288V408.72H312.72V384Z" fill="white"/>
<path fill-rule="evenodd" clip-rule="evenodd" d="M312.22 384.5H288.5V408.22H312.22V384.5ZM312.72 384V408.72H288V384H312.72Z" fill="white"/>
<path d="M360.72 384H336V408.72H360.72V384Z" fill="white"/>
<path fill-rule="evenodd" clip-rule="evenodd" d="M360.22 384.5H336.5V408.22H360.22V384.5ZM360.72 384V408.72H336V384H360.72Z" fill="white"/>
<path d="M384.72 384H360V408.72H384.72V384Z" fill="white"/>
<path fill-rule="evenodd" clip-rule="evenodd" d="M384.22 384.5H360.5V408.22H384.22V384.5ZM384.72 384V408.72H360V384H384.72Z" fill="white"/>
<path d="M432.72 384H408V408.72H432.72V384Z" fill="white"/>
<path fill-rule="evenodd" clip-rule="evenodd" d="M432.22 384.5H408.5V408.22H432.22V384.5ZM432.72 384V408.72H408V384H432.72Z" fill="white"/>
<path d="M480.72 384H456V408.72H480.72V384Z" fill="white"/>
<path fill-rule="evenodd" clip-rule="evenodd" d="M480.22 384.5H456.5V408.22H480.22V384.5ZM480.72 384V408.72H456V384H480.72Z" fill="white"/>
<path d="M504.72 384H480V408.72H504.72V384Z" fill="white"/>
<path fill-rule="evenodd" clip-rule="evenodd" d="M504.22 384.5H480.5V408.22H504.22V384.5ZM504.72 384V408.72H480V384H504.72Z" fill="white"/>
<path d="M576.72 384H552V408.72H576.72V384Z" fill="white"/>
<path fill-rule="evenodd" clip-rule="evenodd" d="M576.22 384.5H552.5V408.22H576.22V384.5ZM576.72 384V408.72H552V384H576.72Z" fill="white"/>
<path d="M624.72 384H600V408.72H624.72V384Z" fill="white"/>
<path fill-rule="evenodd" clip-rule="evenodd" d="M624.22 384.5H600.5V408.22H624.22V384.5ZM624.72 384V408.72H600V384H624.72Z" fill="white"/>
<path d="M696.72 384H672V408.72H696.72V384Z" fill="white"/>
<path fill-rule="evenodd" clip-rule="evenodd" d="M696.22 384.5H672.5V408.22H696.22V384.5ZM696.72 384V408.72H672V384H696.72Z" fill="white"/>
<path d="M744.72 384H720V408.72H744.72V384Z" fill="white"/>
<path fill-rule="evenodd" clip-rule="evenodd" d="M744.22 384.5H720.5V408.22H744.22V384.5ZM744.72 384V408.72H720V384H744.72Z" fill="white"/>
<path d="M792.72 384H768V408.72H792.72V384Z" fill="white"/>
<path fill-rule="evenodd" clip-rule="evenodd" d="M792.22 384.5H768.5V408.22H792.22V384.5ZM792.72 384V408.72H768V384H792.72Z" fill="white"/>
<path d="M48.72 408H24V432.72H48.72V408Z" fill="white"/>
<path fill-rule="evenodd" clip-rule="evenodd" d="M48.22 408.5H24.5V432.22H48.22V408.5ZM48.72 408V432.72H24V408H48.72Z" fill="white"/>
<path d="M96.72 408H72V432.72H96.72V408Z" fill="white"/>
<path fill-rule="evenodd" clip-rule="evenodd" d="M96.22 408.5H72.5V432.22H96.22V408.5ZM96.72 408V432.72H72V408H96.72Z" fill="white"/>
<path d="M120.72 408H96V432.72H120.72V408Z" fill="white"/>
<path fill-rule="evenodd" clip-rule="evenodd" d="M120.22 408.5H96.5V432.22H120.22V408.5ZM120.72 408V432.72H96V408H120.72Z" fill="white"/>
<path d="M192.72 408H168V432.72H192.72V408Z" fill="white"/>
<path fill-rule="evenodd" clip-rule="evenodd" d="M192.22 408.5H168.5V432.22H192.22V408.5ZM192.72 408V432.72H168V408H192.72Z" fill="white"/>
<path d="M216.72 408H192V432.72H216.72V408Z" fill="white"/>
<path fill-rule="evenodd" clip-rule="evenodd" d="M216.22 408.5H192.5V432.22H216.22V408.5ZM216.72 408V432.72H192V408H216.72Z" fill="white"/>
<path d="M240.72 408H216V432.72H240.72V408Z" fill="white"/>
<path fill-rule="evenodd" clip-rule="evenodd" d="M240.22 408.5H216.5V432.22H240.22V408.5ZM240.72 408V432.72H216V408H240.72Z" fill="white"/>
<path d="M288.72 408H264V432.72H288.72V408Z" fill="white"/>
<path fill-rule="evenodd" clip-rule="evenodd" d="M288.22 408.5H264.5V432.22H288.22V408.5ZM288.72 408V432.72H264V408H288.72Z" fill="white"/>
<path d="M312.72 408H288V432.72H312.72V408Z" fill="white"/>
<path fill-rule="evenodd" clip-rule="evenodd" d="M312.22 408.5H288.5V432.22H312.22V408.5ZM312.72 408V432.72H288V408H312.72Z" fill="white"/>
<path d="M336.72 408H312V432.72H336.72V408Z" fill="white"/>
<path fill-rule="evenodd" clip-rule="evenodd" d="M336.22 408.5H312.5V432.22H336.22V408.5ZM336.72 408V432.72H312V408H336.72Z" fill="white"/>
<path d="M360.72 408H336V432.72H360.72V408Z" fill="white"/>
<path fill-rule="evenodd" clip-rule="evenodd" d="M360.22 408.5H336.5V432.22H360.22V408.5ZM360.72 408V432.72H336V408H360.72Z" fill="white"/>
<path d="M384.72 408H360V432.72H384.72V408Z" fill="white"/>
<path fill-rule="evenodd" clip-rule="evenodd" d="M384.22 408.5H360.5V432.22H384.22V408.5ZM384.72 408V432.72H360V408H384.72Z" fill="white"/>
<path d="M432.72 408H408V432.72H432.72V408Z" fill="white"/>
<path fill-rule="evenodd" clip-rule="evenodd" d="M432.22 408.5H408.5V432.22H432.22V408.5ZM432.72 408V432.72H408V408H432.72Z" fill="white"/>
<path d="M456.72 408H432V432.72H456.72V408Z" fill="white"/>
<path fill-rule="evenodd" clip-rule="evenodd" d="M456.22 408.5H432.5V432.22H456.22V408.5ZM456.72 408V432.72H432V408H456.72Z" fill="white"/>
<path d="M504.72 408H480V432.72H504.72V408Z" fill="white"/>
<path fill-rule="evenodd" clip-rule="evenodd" d="M504.22 408.5H480.5V432.22H504.22V408.5ZM504.72 408V432.72H480V408H504.72Z" fill="white"/>
<path d="M528.72 408H504V432.72H528.72V408Z" fill="white"/>
<path fill-rule="evenodd" clip-rule="evenodd" d="M528.22 408.5H504.5V432.22H528.22V408.5ZM528.72 408V432.72H504V408H528.72Z" fill="white"/>
<path d="M576.72 408H552V432.72H576.72V408Z" fill="white"/>
<path fill-rule="evenodd" clip-rule="evenodd" d="M576.22 408.5H552.5V432.22H576.22V408.5ZM576.72 408V432.72H552V408H576.72Z" fill="white"/>
<path d="M600.72 408H576V432.72H600.72V408Z" fill="white"/>
<path fill-rule="evenodd" clip-rule="evenodd" d="M600.22 408.5H576.5V432.22H600.22V408.5ZM600.72 408V432.72H576V408H600.72Z" fill="white"/>
<path d="M624.72 408H600V432.72H624.72V408Z" fill="white"/>
<path fill-rule="evenodd" clip-rule="evenodd" d="M624.22 408.5H600.5V432.22H624.22V408.5ZM624.72 408V432.72H600V408H624.72Z" fill="white"/>
<path d="M648.72 408H624V432.72H648.72V408Z" fill="white"/>
<path fill-rule="evenodd" clip-rule="evenodd" d="M648.22 408.5H624.5V432.22H648.22V408.5ZM648.72 408V432.72H624V408H648.72Z" fill="white"/>
<path d="M768.72 408H744V432.72H768.72V408Z" fill="white"/>
<path fill-rule="evenodd" clip-rule="evenodd" d="M768.22 408.5H744.5V432.22H768.22V408.5ZM768.72 408V432.72H744V408H768.72Z" fill="white"/>
<path d="M792.72 408H768V432.72H792.72V408Z" fill="white"/>
<path fill-rule="evenodd" clip-rule="evenodd" d="M792.22 408.5H768.5V432.22H792.22V408.5ZM792.72 408V432.72H768V408H792.72Z" fill="white"/>
<path d="M48.72 432H24V456.72H48.72V432Z" fill="white"/>
<path fill-rule="evenodd" clip-rule="evenodd" d="M48.22 432.5H24.5V456.22H48.22V432.5ZM48.72 432V456.72H24V432H48.72Z" fill="white"/>
<path d="M72.72 432H48V456.72H72.72V432Z" fill="white"/>
<path fill-rule="evenodd" clip-rule="evenodd" d="M72.22 432.5H48.5V456.22H72.22V432.5ZM72.72 432V456.72H48V432H72.72Z" fill="white"/>
<path d="M96.72 432H72V456.72H96.72V432Z" fill="white"/>
<path fill-rule="evenodd" clip-rule="evenodd" d="M96.22 432.5H72.5V456.22H96.22V432.5ZM96.72 432V456.72H72V432H96.72Z" fill="white"/>
<path d="M120.72 432H96V456.72H120.72V432Z" fill="white"/>
<path fill-rule="evenodd" clip-rule="evenodd" d="M120.22 432.5H96.5V456.22H120.22V432.5ZM120.72 432V456.72H96V432H120.72Z" fill="white"/>
<path d="M168.72 432H144V456.72H168.72V432Z" fill="white"/>
<path fill-rule="evenodd" clip-rule="evenodd" d="M168.22 432.5H144.5V456.22H168.22V432.5ZM168.72 432V456.72H144V432H168.72Z" fill="white"/>
<path d="M240.72 432H216V456.72H240.72V432Z" fill="white"/>
<path fill-rule="evenodd" clip-rule="evenodd" d="M240.22 432.5H216.5V456.22H240.22V432.5ZM240.72 432V456.72H216V432H240.72Z" fill="white"/>
<path d="M288.72 432H264V456.72H288.72V432Z" fill="white"/>
<path fill-rule="evenodd" clip-rule="evenodd" d="M288.22 432.5H264.5V456.22H288.22V432.5ZM288.72 432V456.72H264V432H288.72Z" fill="white"/>
<path d="M360.72 432H336V456.72H360.72V432Z" fill="white"/>
<path fill-rule="evenodd" clip-rule="evenodd" d="M360.22 432.5H336.5V456.22H360.22V432.5ZM360.72 432V456.72H336V432H360.72Z" fill="white"/>
<path d="M384.72 432H360V456.72H384.72V432Z" fill="white"/>
<path fill-rule="evenodd" clip-rule="evenodd" d="M384.22 432.5H360.5V456.22H384.22V432.5ZM384.72 432V456.72H360V432H384.72Z" fill="white"/>
<path d="M408.72 432H384V456.72H408.72V432Z" fill="white"/>
<path fill-rule="evenodd" clip-rule="evenodd" d="M408.22 432.5H384.5V456.22H408.22V432.5ZM408.72 432V456.72H384V432H408.72Z" fill="white"/>
<path d="M480.72 432H456V456.72H480.72V432Z" fill="white"/>
<path fill-rule="evenodd" clip-rule="evenodd" d="M480.22 432.5H456.5V456.22H480.22V432.5ZM480.72 432V456.72H456V432H480.72Z" fill="white"/>
<path d="M504.72 432H480V456.72H504.72V432Z" fill="white"/>
<path fill-rule="evenodd" clip-rule="evenodd" d="M504.22 432.5H480.5V456.22H504.22V432.5ZM504.72 432V456.72H480V432H504.72Z" fill="white"/>
<path d="M624.72 432H600V456.72H624.72V432Z" fill="white"/>
<path fill-rule="evenodd" clip-rule="evenodd" d="M624.22 432.5H600.5V456.22H624.22V432.5ZM624.72 432V456.72H600V432H624.72Z" fill="white"/>
<path d="M648.72 432H624V456.72H648.72V432Z" fill="white"/>
<path fill-rule="evenodd" clip-rule="evenodd" d="M648.22 432.5H624.5V456.22H648.22V432.5ZM648.72 432V456.72H624V432H648.72Z" fill="white"/>
<path d="M672.72 432H648V456.72H672.72V432Z" fill="white"/>
<path fill-rule="evenodd" clip-rule="evenodd" d="M672.22 432.5H648.5V456.22H672.22V432.5ZM672.72 432V456.72H648V432H672.72Z" fill="white"/>
<path d="M744.72 432H720V456.72H744.72V432Z" fill="white"/>
<path fill-rule="evenodd" clip-rule="evenodd" d="M744.22 432.5H720.5V456.22H744.22V432.5ZM744.72 432V456.72H720V432H744.72Z" fill="white"/>
<path d="M768.72 432H744V456.72H768.72V432Z" fill="white"/>
<path fill-rule="evenodd" clip-rule="evenodd" d="M768.22 432.5H744.5V456.22H768.22V432.5ZM768.72 432V456.72H744V432H768.72Z" fill="white"/>
<path d="M96.72 456H72V480.72H96.72V456Z" fill="white"/>
<path fill-rule="evenodd" clip-rule="evenodd" d="M96.22 456.5H72.5V480.22H96.22V456.5ZM96.72 456V480.72H72V456H96.72Z" fill="white"/>
<path d="M192.72 456H168V480.72H192.72V456Z" fill="white"/>
<path fill-rule="evenodd" clip-rule="evenodd" d="M192.22 456.5H168.5V480.22H192.22V456.5ZM192.72 456V480.72H168V456H192.72Z" fill="white"/>
<path d="M312.72 456H288V480.72H312.72V456Z" fill="white"/>
<path fill-rule="evenodd" clip-rule="evenodd" d="M312.22 456.5H288.5V480.22H312.22V456.5ZM312.72 456V480.72H288V456H312.72Z" fill="white"/>
<path d="M384.72 456H360V480.72H384.72V456Z" fill="white"/>
<path fill-rule="evenodd" clip-rule="evenodd" d="M384.22 456.5H360.5V480.22H384.22V456.5ZM384.72 456V480.72H360V456H384.72Z" fill="white"/>
<path d="M408.72 456H384V480.72H408.72V456Z" fill="white"/>
<path fill-rule="evenodd" clip-rule="evenodd" d="M408.22 456.5H384.5V480.22H408.22V456.5ZM408.72 456V480.72H384V456H408.72Z" fill="white"/>
<path d="M528.72 456H504V480.72H528.72V456Z" fill="white"/>
<path fill-rule="evenodd" clip-rule="evenodd" d="M528.22 456.5H504.5V480.22H528.22V456.5ZM528.72 456V480.72H504V456H528.72Z" fill="white"/>
<path d="M552.72 456H528V480.72H552.72V456Z" fill="white"/>
<path fill-rule="evenodd" clip-rule="evenodd" d="M552.22 456.5H528.5V480.22H552.22V456.5ZM552.72 456V480.72H528V456H552.72Z" fill="white"/>
<path d="M576.72 456H552V480.72H576.72V456Z" fill="white"/>
<path fill-rule="evenodd" clip-rule="evenodd" d="M576.22 456.5H552.5V480.22H576.22V456.5ZM576.72 456V480.72H552V456H576.72Z" fill="white"/>
<path d="M600.72 456H576V480.72H600.72V456Z" fill="white"/>
<path fill-rule="evenodd" clip-rule="evenodd" d="M600.22 456.5H576.5V480.22H600.22V456.5ZM600.72 456V480.72H576V456H600.72Z" fill="white"/>
<path d="M648.72 456H624V480.72H648.72V456Z" fill="white"/>
<path fill-rule="evenodd" clip-rule="evenodd" d="M648.22 456.5H624.5V480.22H648.22V456.5ZM648.72 456V480.72H624V456H648.72Z" fill="white"/>
<path d="M672.72 456H648V480.72H672.72V456Z" fill="white"/>
<path fill-rule="evenodd" clip-rule="evenodd" d="M672.22 456.5H648.5V480.22H672.22V456.5ZM672.72 456V480.72H648V456H672.72Z" fill="white"/>
<path d="M696.72 456H672V480.72H696.72V456Z" fill="white"/>
<path fill-rule="evenodd" clip-rule="evenodd" d="M696.22 456.5H672.5V480.22H696.22V456.5ZM696.72 456V480.72H672V456H696.72Z" fill="white"/>
<path d="M720.72 456H696V480.72H720.72V456Z" fill="white"/>
<path fill-rule="evenodd" clip-rule="evenodd" d="M720.22 456.5H696.5V480.22H720.22V456.5ZM720.72 456V480.72H696V456H720.72Z" fill="white"/>
<path d="M744.72 456H720V480.72H744.72V456Z" fill="white"/>
<path fill-rule="evenodd" clip-rule="evenodd" d="M744.22 456.5H720.5V480.22H744.22V456.5ZM744.72 456V480.72H720V456H744.72Z" fill="white"/>
<path d="M72.72 480H48V504.72H72.72V480Z" fill="white"/>
<path fill-rule="evenodd" clip-rule="evenodd" d="M72.22 480.5H48.5V504.22H72.22V480.5ZM72.72 480V504.72H48V480H72.72Z" fill="white"/>
<path d="M120.72 480H96V504.72H120.72V480Z" fill="white"/>
<path fill-rule="evenodd" clip-rule="evenodd" d="M120.22 480.5H96.5V504.22H120.22V480.5ZM120.72 480V504.72H96V480H120.72Z" fill="white"/>
<path d="M168.72 480H144V504.72H168.72V480Z" fill="white"/>
<path fill-rule="evenodd" clip-rule="evenodd" d="M168.22 480.5H144.5V504.22H168.22V480.5ZM168.72 480V504.72H144V480H168.72Z" fill="white"/>
<path d="M240.72 480H216V504.72H240.72V480Z" fill="white"/>
<path fill-rule="evenodd" clip-rule="evenodd" d="M240.22 480.5H216.5V504.22H240.22V480.5ZM240.72 480V504.72H216V480H240.72Z" fill="white"/>
<path d="M264.72 480H240V504.72H264.72V480Z" fill="white"/>
<path fill-rule="evenodd" clip-rule="evenodd" d="M264.22 480.5H240.5V504.22H264.22V480.5ZM264.72 480V504.72H240V480H264.72Z" fill="white"/>
<path d="M312.72 480H288V504.72H312.72V480Z" fill="white"/>
<path fill-rule="evenodd" clip-rule="evenodd" d="M312.22 480.5H288.5V504.22H312.22V480.5ZM312.72 480V504.72H288V480H312.72Z" fill="white"/>
<path d="M336.72 480H312V504.72H336.72V480Z" fill="white"/>
<path fill-rule="evenodd" clip-rule="evenodd" d="M336.22 480.5H312.5V504.22H336.22V480.5ZM336.72 480V504.72H312V480H336.72Z" fill="white"/>
<path d="M360.72 480H336V504.72H360.72V480Z" fill="white"/>
<path fill-rule="evenodd" clip-rule="evenodd" d="M360.22 480.5H336.5V504.22H360.22V480.5ZM360.72 480V504.72H336V480H360.72Z" fill="white"/>
<path d="M384.72 480H360V504.72H384.72V480Z" fill="white"/>
<path fill-rule="evenodd" clip-rule="evenodd" d="M384.22 480.5H360.5V504.22H384.22V480.5ZM384.72 480V504.72H360V480H384.72Z" fill="white"/>
<path d="M408.72 480H384V504.72H408.72V480Z" fill="white"/>
<path fill-rule="evenodd" clip-rule="evenodd" d="M408.22 480.5H384.5V504.22H408.22V480.5ZM408.72 480V504.72H384V480H408.72Z" fill="white"/>
<path d="M432.72 480H408V504.72H432.72V480Z" fill="white"/>
<path fill-rule="evenodd" clip-rule="evenodd" d="M432.22 480.5H408.5V504.22H432.22V480.5ZM432.72 480V504.72H408V480H432.72Z" fill="white"/>
<path d="M480.72 480H456V504.72H480.72V480Z" fill="white"/>
<path fill-rule="evenodd" clip-rule="evenodd" d="M480.22 480.5H456.5V504.22H480.22V480.5ZM480.72 480V504.72H456V480H480.72Z" fill="white"/>
<path d="M552.72 480H528V504.72H552.72V480Z" fill="white"/>
<path fill-rule="evenodd" clip-rule="evenodd" d="M552.22 480.5H528.5V504.22H552.22V480.5ZM552.72 480V504.72H528V480H552.72Z" fill="white"/>
<path d="M624.72 480H600V504.72H624.72V480Z" fill="white"/>
<path fill-rule="evenodd" clip-rule="evenodd" d="M624.22 480.5H600.5V504.22H624.22V480.5ZM624.72 480V504.72H600V480H624.72Z" fill="white"/>
<path d="M648.72 480H624V504.72H648.72V480Z" fill="white"/>
<path fill-rule="evenodd" clip-rule="evenodd" d="M648.22 480.5H624.5V504.22H648.22V480.5ZM648.72 480V504.72H624V480H648.72Z" fill="white"/>
<path d="M672.72 480H648V504.72H672.72V480Z" fill="white"/>
<path fill-rule="evenodd" clip-rule="evenodd" d="M672.22 480.5H648.5V504.22H672.22V480.5ZM672.72 480V504.72H648V480H672.72Z" fill="white"/>
<path d="M696.72 480H672V504.72H696.72V480Z" fill="white"/>
<path fill-rule="evenodd" clip-rule="evenodd" d="M696.22 480.5H672.5V504.22H696.22V480.5ZM696.72 480V504.72H672V480H696.72Z" fill="white"/>
<path d="M720.72 480H696V504.72H720.72V480Z" fill="white"/>
<path fill-rule="evenodd" clip-rule="evenodd" d="M720.22 480.5H696.5V504.22H720.22V480.5ZM720.72 480V504.72H696V480H720.72Z" fill="white"/>
<path d="M792.72 480H768V504.72H792.72V480Z" fill="white"/>
<path fill-rule="evenodd" clip-rule="evenodd" d="M792.22 480.5H768.5V504.22H792.22V480.5ZM792.72 480V504.72H768V480H792.72Z" fill="white"/>
<path d="M24.72 504H0V528.72H24.72V504Z" fill="white"/>
<path fill-rule="evenodd" clip-rule="evenodd" d="M24.22 504.5H0.5V528.22H24.22V504.5ZM24.72 504V528.72H0V504H24.72Z" fill="white"/>
<path d="M48.72 504H24V528.72H48.72V504Z" fill="white"/>
<path fill-rule="evenodd" clip-rule="evenodd" d="M48.22 504.5H24.5V528.22H48.22V504.5ZM48.72 504V528.72H24V504H48.72Z" fill="white"/>
<path d="M96.72 504H72V528.72H96.72V504Z" fill="white"/>
<path fill-rule="evenodd" clip-rule="evenodd" d="M96.22 504.5H72.5V528.22H96.22V504.5ZM96.72 504V528.72H72V504H96.72Z" fill="white"/>
<path d="M120.72 504H96V528.72H120.72V504Z" fill="white"/>
<path fill-rule="evenodd" clip-rule="evenodd" d="M120.22 504.5H96.5V528.22H120.22V504.5ZM120.72 504V528.72H96V504H120.72Z" fill="white"/>
<path d="M144.72 504H120V528.72H144.72V504Z" fill="white"/>
<path fill-rule="evenodd" clip-rule="evenodd" d="M144.22 504.5H120.5V528.22H144.22V504.5ZM144.72 504V528.72H120V504H144.72Z" fill="white"/>
<path d="M192.72 504H168V528.72H192.72V504Z" fill="white"/>
<path fill-rule="evenodd" clip-rule="evenodd" d="M192.22 504.5H168.5V528.22H192.22V504.5ZM192.72 504V528.72H168V504H192.72Z" fill="white"/>
<path d="M216.72 504H192V528.72H216.72V504Z" fill="white"/>
<path fill-rule="evenodd" clip-rule="evenodd" d="M216.22 504.5H192.5V528.22H216.22V504.5ZM216.72 504V528.72H192V504H216.72Z" fill="white"/>
<path d="M240.72 504H216V528.72H240.72V504Z" fill="white"/>
<path fill-rule="evenodd" clip-rule="evenodd" d="M240.22 504.5H216.5V528.22H240.22V504.5ZM240.72 504V528.72H216V504H240.72Z" fill="white"/>
<path d="M288.72 504H264V528.72H288.72V504Z" fill="white"/>
<path fill-rule="evenodd" clip-rule="evenodd" d="M288.22 504.5H264.5V528.22H288.22V504.5ZM288.72 504V528.72H264V504H288.72Z" fill="white"/>
<path d="M312.72 504H288V528.72H312.72V504Z" fill="white"/>
<path fill-rule="evenodd" clip-rule="evenodd" d="M312.22 504.5H288.5V528.22H312.22V504.5ZM312.72 504V528.72H288V504H312.72Z" fill="white"/>
<path d="M336.72 504H312V528.72H336.72V504Z" fill="white"/>
<path fill-rule="evenodd" clip-rule="evenodd" d="M336.22 504.5H312.5V528.22H336.22V504.5ZM336.72 504V528.72H312V504H336.72Z" fill="white"/>
<path d="M384.72 504H360V528.72H384.72V504Z" fill="white"/>
<path fill-rule="evenodd" clip-rule="evenodd" d="M384.22 504.5H360.5V528.22H384.22V504.5ZM384.72 504V528.72H360V504H384.72Z" fill="white"/>
<path d="M408.72 504H384V528.72H408.72V504Z" fill="white"/>
<path fill-rule="evenodd" clip-rule="evenodd" d="M408.22 504.5H384.5V528.22H408.22V504.5ZM408.72 504V528.72H384V504H408.72Z" fill="white"/>
<path d="M432.72 504H408V528.72H432.72V504Z" fill="white"/>
<path fill-rule="evenodd" clip-rule="evenodd" d="M432.22 504.5H408.5V528.22H432.22V504.5ZM432.72 504V528.72H408V504H432.72Z" fill="white"/>
<path d="M456.72 504H432V528.72H456.72V504Z" fill="white"/>
<path fill-rule="evenodd" clip-rule="evenodd" d="M456.22 504.5H432.5V528.22H456.22V504.5ZM456.72 504V528.72H432V504H456.72Z" fill="white"/>
<path d="M504.72 504H480V528.72H504.72V504Z" fill="white"/>
<path fill-rule="evenodd" clip-rule="evenodd" d="M504.22 504.5H480.5V528.22H504.22V504.5ZM504.72 504V528.72H480V504H504.72Z" fill="white"/>
<path d="M528.72 504H504V528.72H528.72V504Z" fill="white"/>
<path fill-rule="evenodd" clip-rule="evenodd" d="M528.22 504.5H504.5V528.22H528.22V504.5ZM528.72 504V528.72H504V504H528.72Z" fill="white"/>
<path d="M600.72 504H576V528.72H600.72V504Z" fill="white"/>
<path fill-rule="evenodd" clip-rule="evenodd" d="M600.22 504.5H576.5V528.22H600.22V504.5ZM600.72 504V528.72H576V504H600.72Z" fill="white"/>
<path d="M792.72 504H768V528.72H792.72V504Z" fill="white"/>
<path fill-rule="evenodd" clip-rule="evenodd" d="M792.22 504.5H768.5V528.22H792.22V504.5ZM792.72 504V528.72H768V504H792.72Z" fill="white"/>
<path d="M24.72 528H0V552.72H24.72V528Z" fill="white"/>
<path fill-rule="evenodd" clip-rule="evenodd" d="M24.22 528.5H0.5V552.22H24.22V528.5ZM24.72 528V552.72H0V528H24.72Z" fill="white"/>
<path d="M72.72 528H48V552.72H72.72V528Z" fill="white"/>
<path fill-rule="evenodd" clip-rule="evenodd" d="M72.22 528.5H48.5V552.22H72.22V528.5ZM72.72 528V552.72H48V528H72.72Z" fill="white"/>
<path d="M96.72 528H72V552.72H96.72V528Z" fill="white"/>
<path fill-rule="evenodd" clip-rule="evenodd" d="M96.22 528.5H72.5V552.22H96.22V528.5ZM96.72 528V552.72H72V528H96.72Z" fill="white"/>
<path d="M168.72 528H144V552.72H168.72V528Z" fill="white"/>
<path fill-rule="evenodd" clip-rule="evenodd" d="M168.22 528.5H144.5V552.22H168.22V528.5ZM168.72 528V552.72H144V528H168.72Z" fill="white"/>
<path d="M192.72 528H168V552.72H192.72V528Z" fill="white"/>
<path fill-rule="evenodd" clip-rule="evenodd" d="M192.22 528.5H168.5V552.22H192.22V528.5ZM192.72 528V552.72H168V528H192.72Z" fill="white"/>
<path d="M264.72 528H240V552.72H264.72V528Z" fill="white"/>
<path fill-rule="evenodd" clip-rule="evenodd" d="M264.22 528.5H240.5V552.22H264.22V528.5ZM264.72 528V552.72H240V528H264.72Z" fill="white"/>
<path d="M312.72 528H288V552.72H312.72V528Z" fill="white"/>
<path fill-rule="evenodd" clip-rule="evenodd" d="M312.22 528.5H288.5V552.22H312.22V528.5ZM312.72 528V552.72H288V528H312.72Z" fill="white"/>
<path d="M360.72 528H336V552.72H360.72V528Z" fill="white"/>
<path fill-rule="evenodd" clip-rule="evenodd" d="M360.22 528.5H336.5V552.22H360.22V528.5ZM360.72 528V552.72H336V528H360.72Z" fill="white"/>
<path d="M384.72 528H360V552.72H384.72V528Z" fill="white"/>
<path fill-rule="evenodd" clip-rule="evenodd" d="M384.22 528.5H360.5V552.22H384.22V528.5ZM384.72 528V552.72H360V528H384.72Z" fill="white"/>
<path d="M408.72 528H384V552.72H408.72V528Z" fill="white"/>
<path fill-rule="evenodd" clip-rule="evenodd" d="M408.22 528.5H384.5V552.22H408.22V528.5ZM408.72 528V552.72H384V528H408.72Z" fill="white"/>
<path d="M432.72 528H408V552.72H432.72V528Z" fill="white"/>
<path fill-rule="evenodd" clip-rule="evenodd" d="M432.22 528.5H408.5V552.22H432.22V528.5ZM432.72 528V552.72H408V528H432.72Z" fill="white"/>
<path d="M456.72 528H432V552.72H456.72V528Z" fill="white"/>
<path fill-rule="evenodd" clip-rule="evenodd" d="M456.22 528.5H432.5V552.22H456.22V528.5ZM456.72 528V552.72H432V528H456.72Z" fill="white"/>
<path d="M672.72 528H648V552.72H672.72V528Z" fill="white"/>
<path fill-rule="evenodd" clip-rule="evenodd" d="M672.22 528.5H648.5V552.22H672.22V528.5ZM672.72 528V552.72H648V528H672.72Z" fill="white"/>
<path d="M696.72 528H672V552.72H696.72V528Z" fill="white"/>
<path fill-rule="evenodd" clip-rule="evenodd" d="M696.22 528.5H672.5V552.22H696.22V528.5ZM696.72 528V552.72H672V528H696.72Z" fill="white"/>
<path d="M720.72 528H696V552.72H720.72V528Z" fill="white"/>
<path fill-rule="evenodd" clip-rule="evenodd" d="M720.22 528.5H696.5V552.22H720.22V528.5ZM720.72 528V552.72H696V528H720.72Z" fill="white"/>
<path d="M768.72 528H744V552.72H768.72V528Z" fill="white"/>
<path fill-rule="evenodd" clip-rule="evenodd" d="M768.22 528.5H744.5V552.22H768.22V528.5ZM768.72 528V552.72H744V528H768.72Z" fill="white"/>
<path d="M24.72 552H0V576.72H24.72V552Z" fill="white"/>
<path fill-rule="evenodd" clip-rule="evenodd" d="M24.22 552.5H0.5V576.22H24.22V552.5ZM24.72 552V576.72H0V552H24.72Z" fill="white"/>
<path d="M72.72 552H48V576.72H72.72V552Z" fill="white"/>
<path fill-rule="evenodd" clip-rule="evenodd" d="M72.22 552.5H48.5V576.22H72.22V552.5ZM72.72 552V576.72H48V552H72.72Z" fill="white"/>
<path d="M144.72 552H120V576.72H144.72V552Z" fill="white"/>
<path fill-rule="evenodd" clip-rule="evenodd" d="M144.22 552.5H120.5V576.22H144.22V552.5ZM144.72 552V576.72H120V552H144.72Z" fill="white"/>
<path d="M192.72 552H168V576.72H192.72V552Z" fill="white"/>
<path fill-rule="evenodd" clip-rule="evenodd" d="M192.22 552.5H168.5V576.22H192.22V552.5ZM192.72 552V576.72H168V552H192.72Z" fill="white"/>
<path d="M216.72 552H192V576.72H216.72V552Z" fill="white"/>
<path fill-rule="evenodd" clip-rule="evenodd" d="M216.22 552.5H192.5V576.22H216.22V552.5ZM216.72 552V576.72H192V552H216.72Z" fill="white"/>
<path d="M240.72 552H216V576.72H240.72V552Z" fill="white"/>
<path fill-rule="evenodd" clip-rule="evenodd" d="M240.22 552.5H216.5V576.22H240.22V552.5ZM240.72 552V576.72H216V552H240.72Z" fill="white"/>
<path d="M312.72 552H288V576.72H312.72V552Z" fill="white"/>
<path fill-rule="evenodd" clip-rule="evenodd" d="M312.22 552.5H288.5V576.22H312.22V552.5ZM312.72 552V576.72H288V552H312.72Z" fill="white"/>
<path d="M384.72 552H360V576.72H384.72V552Z" fill="white"/>
<path fill-rule="evenodd" clip-rule="evenodd" d="M384.22 552.5H360.5V576.22H384.22V552.5ZM384.72 552V576.72H360V552H384.72Z" fill="white"/>
<path d="M432.72 552H408V576.72H432.72V552Z" fill="white"/>
<path fill-rule="evenodd" clip-rule="evenodd" d="M432.22 552.5H408.5V576.22H432.22V552.5ZM432.72 552V576.72H408V552H432.72Z" fill="white"/>
<path d="M456.72 552H432V576.72H456.72V552Z" fill="white"/>
<path fill-rule="evenodd" clip-rule="evenodd" d="M456.22 552.5H432.5V576.22H456.22V552.5ZM456.72 552V576.72H432V552H456.72Z" fill="white"/>
<path d="M504.72 552H480V576.72H504.72V552Z" fill="white"/>
<path fill-rule="evenodd" clip-rule="evenodd" d="M504.22 552.5H480.5V576.22H504.22V552.5ZM504.72 552V576.72H480V552H504.72Z" fill="white"/>
<path d="M528.72 552H504V576.72H528.72V552Z" fill="white"/>
<path fill-rule="evenodd" clip-rule="evenodd" d="M528.22 552.5H504.5V576.22H528.22V552.5ZM528.72 552V576.72H504V552H528.72Z" fill="white"/>
<path d="M552.72 552H528V576.72H552.72V552Z" fill="white"/>
<path fill-rule="evenodd" clip-rule="evenodd" d="M552.22 552.5H528.5V576.22H552.22V552.5ZM552.72 552V576.72H528V552H552.72Z" fill="white"/>
<path d="M600.72 552H576V576.72H600.72V552Z" fill="white"/>
<path fill-rule="evenodd" clip-rule="evenodd" d="M600.22 552.5H576.5V576.22H600.22V552.5ZM600.72 552V576.72H576V552H600.72Z" fill="white"/>
<path d="M696.72 552H672V576.72H696.72V552Z" fill="white"/>
<path fill-rule="evenodd" clip-rule="evenodd" d="M696.22 552.5H672.5V576.22H696.22V552.5ZM696.72 552V576.72H672V552H696.72Z" fill="white"/>
<path d="M744.72 552H720V576.72H744.72V552Z" fill="white"/>
<path fill-rule="evenodd" clip-rule="evenodd" d="M744.22 552.5H720.5V576.22H744.22V552.5ZM744.72 552V576.72H720V552H744.72Z" fill="white"/>
<path d="M24.72 576H0V600.72H24.72V576Z" fill="white"/>
<path fill-rule="evenodd" clip-rule="evenodd" d="M24.22 576.5H0.5V600.22H24.22V576.5ZM24.72 576V600.72H0V576H24.72Z" fill="white"/>
<path d="M72.72 576H48V600.72H72.72V576Z" fill="white"/>
<path fill-rule="evenodd" clip-rule="evenodd" d="M72.22 576.5H48.5V600.22H72.22V576.5ZM72.72 576V600.72H48V576H72.72Z" fill="white"/>
<path d="M120.72 576H96V600.72H120.72V576Z" fill="white"/>
<path fill-rule="evenodd" clip-rule="evenodd" d="M120.22 576.5H96.5V600.22H120.22V576.5ZM120.72 576V600.72H96V576H120.72Z" fill="white"/>
<path d="M168.72 576H144V600.72H168.72V576Z" fill="white"/>
<path fill-rule="evenodd" clip-rule="evenodd" d="M168.22 576.5H144.5V600.22H168.22V576.5ZM168.72 576V600.72H144V576H168.72Z" fill="white"/>
<path d="M192.72 576H168V600.72H192.72V576Z" fill="white"/>
<path fill-rule="evenodd" clip-rule="evenodd" d="M192.22 576.5H168.5V600.22H192.22V576.5ZM192.72 576V600.72H168V576H192.72Z" fill="white"/>
<path d="M264.72 576H240V600.72H264.72V576Z" fill="white"/>
<path fill-rule="evenodd" clip-rule="evenodd" d="M264.22 576.5H240.5V600.22H264.22V576.5ZM264.72 576V600.72H240V576H264.72Z" fill="white"/>
<path d="M288.72 576H264V600.72H288.72V576Z" fill="white"/>
<path fill-rule="evenodd" clip-rule="evenodd" d="M288.22 576.5H264.5V600.22H288.22V576.5ZM288.72 576V600.72H264V576H288.72Z" fill="white"/>
<path d="M384.72 576H360V600.72H384.72V576Z" fill="white"/>
<path fill-rule="evenodd" clip-rule="evenodd" d="M384.22 576.5H360.5V600.22H384.22V576.5ZM384.72 576V600.72H360V576H384.72Z" fill="white"/>
<path d="M408.72 576H384V600.72H408.72V576Z" fill="white"/>
<path fill-rule="evenodd" clip-rule="evenodd" d="M408.22 576.5H384.5V600.22H408.22V576.5ZM408.72 576V600.72H384V576H408.72Z" fill="white"/>
<path d="M456.72 576H432V600.72H456.72V576Z" fill="white"/>
<path fill-rule="evenodd" clip-rule="evenodd" d="M456.22 576.5H432.5V600.22H456.22V576.5ZM456.72 576V600.72H432V576H456.72Z" fill="white"/>
<path d="M552.72 576H528V600.72H552.72V576Z" fill="white"/>
<path fill-rule="evenodd" clip-rule="evenodd" d="M552.22 576.5H528.5V600.22H552.22V576.5ZM552.72 576V600.72H528V576H552.72Z" fill="white"/>
<path d="M600.72 576H576V600.72H600.72V576Z" fill="white"/>
<path fill-rule="evenodd" clip-rule="evenodd" d="M600.22 576.5H576.5V600.22H600.22V576.5ZM600.72 576V600.72H576V576H600.72Z" fill="white"/>
<path d="M624.72 576H600V600.72H624.72V576Z" fill="white"/>
<path fill-rule="evenodd" clip-rule="evenodd" d="M624.22 576.5H600.5V600.22H624.22V576.5ZM624.72 576V600.72H600V576H624.72Z" fill="white"/>
<path d="M648.72 576H624V600.72H648.72V576Z" fill="white"/>
<path fill-rule="evenodd" clip-rule="evenodd" d="M648.22 576.5H624.5V600.22H648.22V576.5ZM648.72 576V600.72H624V576H648.72Z" fill="white"/>
<path d="M672.72 576H648V600.72H672.72V576Z" fill="white"/>
<path fill-rule="evenodd" clip-rule="evenodd" d="M672.22 576.5H648.5V600.22H672.22V576.5ZM672.72 576V600.72H648V576H672.72Z" fill="white"/>
<path d="M696.72 576H672V600.72H696.72V576Z" fill="white"/>
<path fill-rule="evenodd" clip-rule="evenodd" d="M696.22 576.5H672.5V600.22H696.22V576.5ZM696.72 576V600.72H672V576H696.72Z" fill="white"/>
<path d="M792.72 576H768V600.72H792.72V576Z" fill="white"/>
<path fill-rule="evenodd" clip-rule="evenodd" d="M792.22 576.5H768.5V600.22H792.22V576.5ZM792.72 576V600.72H768V576H792.72Z" fill="white"/>
<path d="M216.72 600H192V624.72H216.72V600Z" fill="white"/>
<path fill-rule="evenodd" clip-rule="evenodd" d="M216.22 600.5H192.5V624.22H216.22V600.5ZM216.72 600V624.72H192V600H216.72Z" fill="white"/>
<path d="M288.72 600H264V624.72H288.72V600Z" fill="white"/>
<path fill-rule="evenodd" clip-rule="evenodd" d="M288.22 600.5H264.5V624.22H288.22V600.5ZM288.72 600V624.72H264V600H288.72Z" fill="white"/>
<path d="M312.72 600H288V624.72H312.72V600Z" fill="white"/>
<path fill-rule="evenodd" clip-rule="evenodd" d="M312.22 600.5H288.5V624.22H312.22V600.5ZM312.72 600V624.72H288V600H312.72Z" fill="white"/>
<path d="M360.72 600H336V624.72H360.72V600Z" fill="white"/>
<path fill-rule="evenodd" clip-rule="evenodd" d="M360.22 600.5H336.5V624.22H360.22V600.5ZM360.72 600V624.72H336V600H360.72Z" fill="white"/>
<path d="M456.72 600H432V624.72H456.72V600Z" fill="white"/>
<path fill-rule="evenodd" clip-rule="evenodd" d="M456.22 600.5H432.5V624.22H456.22V600.5ZM456.72 600V624.72H432V600H456.72Z" fill="white"/>
<path d="M600.72 600H576V624.72H600.72V600Z" fill="white"/>
<path fill-rule="evenodd" clip-rule="evenodd" d="M600.22 600.5H576.5V624.22H600.22V600.5ZM600.72 600V624.72H576V600H600.72Z" fill="white"/>
<path d="M696.72 600H672V624.72H696.72V600Z" fill="white"/>
<path fill-rule="evenodd" clip-rule="evenodd" d="M696.22 600.5H672.5V624.22H696.22V600.5ZM696.72 600V624.72H672V600H696.72Z" fill="white"/>
<path d="M744.72 600H720V624.72H744.72V600Z" fill="white"/>
<path fill-rule="evenodd" clip-rule="evenodd" d="M744.22 600.5H720.5V624.22H744.22V600.5ZM744.72 600V624.72H720V600H744.72Z" fill="white"/>
<path d="M768.72 600H744V624.72H768.72V600Z" fill="white"/>
<path fill-rule="evenodd" clip-rule="evenodd" d="M768.22 600.5H744.5V624.22H768.22V600.5ZM768.72 600V624.72H744V600H768.72Z" fill="white"/>
<path d="M792.72 600H768V624.72H792.72V600Z" fill="white"/>
<path fill-rule="evenodd" clip-rule="evenodd" d="M792.22 600.5H768.5V624.22H792.22V600.5ZM792.72 600V624.72H768V600H792.72Z" fill="white"/>
<path d="M240.72 624H216V648.72H240.72V624Z" fill="white"/>
<path fill-rule="evenodd" clip-rule="evenodd" d="M240.22 624.5H216.5V648.22H240.22V624.5ZM240.72 624V648.72H216V624H240.72Z" fill="white"/>
<path d="M288.72 624H264V648.72H288.72V624Z" fill="white"/>
<path fill-rule="evenodd" clip-rule="evenodd" d="M288.22 624.5H264.5V648.22H288.22V624.5ZM288.72 624V648.72H264V624H288.72Z" fill="white"/>
<path d="M312.72 624H288V648.72H312.72V624Z" fill="white"/>
<path fill-rule="evenodd" clip-rule="evenodd" d="M312.22 624.5H288.5V648.22H312.22V624.5ZM312.72 624V648.72H288V624H312.72Z" fill="white"/>
<path d="M384.72 624H360V648.72H384.72V624Z" fill="white"/>
<path fill-rule="evenodd" clip-rule="evenodd" d="M384.22 624.5H360.5V648.22H384.22V624.5ZM384.72 624V648.72H360V624H384.72Z" fill="white"/>
<path d="M432.72 624H408V648.72H432.72V624Z" fill="white"/>
<path fill-rule="evenodd" clip-rule="evenodd" d="M432.22 624.5H408.5V648.22H432.22V624.5ZM432.72 624V648.72H408V624H432.72Z" fill="white"/>
<path d="M456.72 624H432V648.72H456.72V624Z" fill="white"/>
<path fill-rule="evenodd" clip-rule="evenodd" d="M456.22 624.5H432.5V648.22H456.22V624.5ZM456.72 624V648.72H432V624H456.72Z" fill="white"/>
<path d="M480.72 624H456V648.72H480.72V624Z" fill="white"/>
<path fill-rule="evenodd" clip-rule="evenodd" d="M480.22 624.5H456.5V648.22H480.22V624.5ZM480.72 624V648.72H456V624H480.72Z" fill="white"/>
<path d="M504.72 624H480V648.72H504.72V624Z" fill="white"/>
<path fill-rule="evenodd" clip-rule="evenodd" d="M504.22 624.5H480.5V648.22H504.22V624.5ZM504.72 624V648.72H480V624H504.72Z" fill="white"/>
<path d="M552.72 624H528V648.72H552.72V624Z" fill="white"/>
<path fill-rule="evenodd" clip-rule="evenodd" d="M552.22 624.5H528.5V648.22H552.22V624.5ZM552.72 624V648.72H528V624H552.72Z" fill="white"/>
<path d="M576.72 624H552V648.72H576.72V624Z" fill="white"/>
<path fill-rule="evenodd" clip-rule="evenodd" d="M576.22 624.5H552.5V648.22H576.22V624.5ZM576.72 624V648.72H552V624H576.72Z" fill="white"/>
<path d="M600.72 624H576V648.72H600.72V624Z" fill="white"/>
<path fill-rule="evenodd" clip-rule="evenodd" d="M600.22 624.5H576.5V648.22H600.22V624.5ZM600.72 624V648.72H576V624H600.72Z" fill="white"/>
<path d="M648.72 624H624V648.72H648.72V624Z" fill="white"/>
<path fill-rule="evenodd" clip-rule="evenodd" d="M648.22 624.5H624.5V648.22H648.22V624.5ZM648.72 624V648.72H624V624H648.72Z" fill="white"/>
<path d="M696.72 624H672V648.72H696.72V624Z" fill="white"/>
<path fill-rule="evenodd" clip-rule="evenodd" d="M696.22 624.5H672.5V648.22H696.22V624.5ZM696.72 624V648.72H672V624H696.72Z" fill="white"/>
<path d="M720.72 624H696V648.72H720.72V624Z" fill="white"/>
<path fill-rule="evenodd" clip-rule="evenodd" d="M720.22 624.5H696.5V648.22H720.22V624.5ZM720.72 624V648.72H696V624H720.72Z" fill="white"/>
<path d="M768.72 624H744V648.72H768.72V624Z" fill="white"/>
<path fill-rule="evenodd" clip-rule="evenodd" d="M768.22 624.5H744.5V648.22H768.22V624.5ZM768.72 624V648.72H744V624H768.72Z" fill="white"/>
<path d="M240.72 648H216V672.72H240.72V648Z" fill="white"/>
<path fill-rule="evenodd" clip-rule="evenodd" d="M240.22 648.5H216.5V672.22H240.22V648.5ZM240.72 648V672.72H216V648H240.72Z" fill="white"/>
<path d="M264.72 648H240V672.72H264.72V648Z" fill="white"/>
<path fill-rule="evenodd" clip-rule="evenodd" d="M264.22 648.5H240.5V672.22H264.22V648.5ZM264.72 648V672.72H240V648H264.72Z" fill="white"/>
<path d="M360.72 648H336V672.72H360.72V648Z" fill="white"/>
<path fill-rule="evenodd" clip-rule="evenodd" d="M360.22 648.5H336.5V672.22H360.22V648.5ZM360.72 648V672.72H336V648H360.72Z" fill="white"/>
<path d="M384.72 648H360V672.72H384.72V648Z" fill="white"/>
<path fill-rule="evenodd" clip-rule="evenodd" d="M384.22 648.5H360.5V672.22H384.22V648.5ZM384.72 648V672.72H360V648H384.72Z" fill="white"/>
<path d="M408.72 648H384V672.72H408.72V648Z" fill="white"/>
<path fill-rule="evenodd" clip-rule="evenodd" d="M408.22 648.5H384.5V672.22H408.22V648.5ZM408.72 648V672.72H384V648H408.72Z" fill="white"/>
<path d="M456.72 648H432V672.72H456.72V648Z" fill="white"/>
<path fill-rule="evenodd" clip-rule="evenodd" d="M456.22 648.5H432.5V672.22H456.22V648.5ZM456.72 648V672.72H432V648H456.72Z" fill="white"/>
<path d="M576.72 648H552V672.72H576.72V648Z" fill="white"/>
<path fill-rule="evenodd" clip-rule="evenodd" d="M576.22 648.5H552.5V672.22H576.22V648.5ZM576.72 648V672.72H552V648H576.72Z" fill="white"/>
<path d="M600.72 648H576V672.72H600.72V648Z" fill="white"/>
<path fill-rule="evenodd" clip-rule="evenodd" d="M600.22 648.5H576.5V672.22H600.22V648.5ZM600.72 648V672.72H576V648H600.72Z" fill="white"/>
<path d="M696.72 648H672V672.72H696.72V648Z" fill="white"/>
<path fill-rule="evenodd" clip-rule="evenodd" d="M696.22 648.5H672.5V672.22H696.22V648.5ZM696.72 648V672.72H672V648H696.72Z" fill="white"/>
<path d="M720.72 648H696V672.72H720.72V648Z" fill="white"/>
<path fill-rule="evenodd" clip-rule="evenodd" d="M720.22 648.5H696.5V672.22H720.22V648.5ZM720.72 648V672.72H696V648H720.72Z" fill="white"/>
<path d="M744.72 648H720V672.72H744.72V648Z" fill="white"/>
<path fill-rule="evenodd" clip-rule="evenodd" d="M744.22 648.5H720.5V672.22H744.22V648.5ZM744.72 648V672.72H720V648H744.72Z" fill="white"/>
<path d="M768.72 648H744V672.72H768.72V648Z" fill="white"/>
<path fill-rule="evenodd" clip-rule="evenodd" d="M768.22 648.5H744.5V672.22H768.22V648.5ZM768.72 648V672.72H744V648H768.72Z" fill="white"/>
<path d="M792.72 648H768V672.72H792.72V648Z" fill="white"/>
<path fill-rule="evenodd" clip-rule="evenodd" d="M792.22 648.5H768.5V672.22H792.22V648.5ZM792.72 648V672.72H768V648H792.72Z" fill="white"/>
<path d="M216.72 672H192V696.72H216.72V672Z" fill="white"/>
<path fill-rule="evenodd" clip-rule="evenodd" d="M216.22 672.5H192.5V696.22H216.22V672.5ZM216.72 672V696.72H192V672H216.72Z" fill="white"/>
<path d="M240.72 672H216V696.72H240.72V672Z" fill="white"/>
<path fill-rule="evenodd" clip-rule="evenodd" d="M240.22 672.5H216.5V696.22H240.22V672.5ZM240.72 672V696.72H216V672H240.72Z" fill="white"/>
<path d="M336.72 672H312V696.72H336.72V672Z" fill="white"/>
<path fill-rule="evenodd" clip-rule="evenodd" d="M336.22 672.5H312.5V696.22H336.22V672.5ZM336.72 672V696.72H312V672H336.72Z" fill="white"/>
<path d="M360.72 672H336V696.72H360.72V672Z" fill="white"/>
<path fill-rule="evenodd" clip-rule="evenodd" d="M360.22 672.5H336.5V696.22H360.22V672.5ZM360.72 672V696.72H336V672H360.72Z" fill="white"/>
<path d="M408.72 672H384V696.72H408.72V672Z" fill="white"/>
<path fill-rule="evenodd" clip-rule="evenodd" d="M408.22 672.5H384.5V696.22H408.22V672.5ZM408.72 672V696.72H384V672H408.72Z" fill="white"/>
<path d="M456.72 672H432V696.72H456.72V672Z" fill="white"/>
<path fill-rule="evenodd" clip-rule="evenodd" d="M456.22 672.5H432.5V696.22H456.22V672.5ZM456.72 672V696.72H432V672H456.72Z" fill="white"/>
<path d="M480.72 672H456V696.72H480.72V672Z" fill="white"/>
<path fill-rule="evenodd" clip-rule="evenodd" d="M480.22 672.5H456.5V696.22H480.22V672.5ZM480.72 672V696.72H456V672H480.72Z" fill="white"/>
<path d="M528.72 672H504V696.72H528.72V672Z" fill="white"/>
<path fill-rule="evenodd" clip-rule="evenodd" d="M528.22 672.5H504.5V696.22H528.22V672.5ZM528.72 672V696.72H504V672H528.72Z" fill="white"/>
<path d="M552.72 672H528V696.72H552.72V672Z" fill="white"/>
<path fill-rule="evenodd" clip-rule="evenodd" d="M552.22 672.5H528.5V696.22H552.22V672.5ZM552.72 672V696.72H528V672H552.72Z" fill="white"/>
<path d="M600.72 672H576V696.72H600.72V672Z" fill="white"/>
<path fill-rule="evenodd" clip-rule="evenodd" d="M600.22 672.5H576.5V696.22H600.22V672.5ZM600.72 672V696.72H576V672H600.72Z" fill="white"/>
<path d="M624.72 672H600V696.72H624.72V672Z" fill="white"/>
<path fill-rule="evenodd" clip-rule="evenodd" d="M624.22 672.5H600.5V696.22H624.22V672.5ZM624.72 672V696.72H600V672H624.72Z" fill="white"/>
<path d="M648.72 672H624V696.72H648.72V672Z" fill="white"/>
<path fill-rule="evenodd" clip-rule="evenodd" d="M648.22 672.5H624.5V696.22H648.22V672.5ZM648.72 672V696.72H624V672H648.72Z" fill="white"/>
<path d="M672.72 672H648V696.72H672.72V672Z" fill="white"/>
<path fill-rule="evenodd" clip-rule="evenodd" d="M672.22 672.5H648.5V696.22H672.22V672.5ZM672.72 672V696.72H648V672H672.72Z" fill="white"/>
<path d="M696.72 672H672V696.72H696.72V672Z" fill="white"/>
<path fill-rule="evenodd" clip-rule="evenodd" d="M696.22 672.5H672.5V696.22H696.22V672.5ZM696.72 672V696.72H672V672H696.72Z" fill="white"/>
<path d="M768.72 672H744V696.72H768.72V672Z" fill="white"/>
<path fill-rule="evenodd" clip-rule="evenodd" d="M768.22 672.5H744.5V696.22H768.22V672.5ZM768.72 672V696.72H744V672H768.72Z" fill="white"/>
<path d="M792.72 672H768V696.72H792.72V672Z" fill="white"/>
<path fill-rule="evenodd" clip-rule="evenodd" d="M792.22 672.5H768.5V696.22H792.22V672.5ZM792.72 672V696.72H768V672H792.72Z" fill="white"/>
<path d="M216.72 696H192V720.72H216.72V696Z" fill="white"/>
<path fill-rule="evenodd" clip-rule="evenodd" d="M216.22 696.5H192.5V720.22H216.22V696.5ZM216.72 696V720.72H192V696H216.72Z" fill="white"/>
<path d="M288.72 696H264V720.72H288.72V696Z" fill="white"/>
<path fill-rule="evenodd" clip-rule="evenodd" d="M288.22 696.5H264.5V720.22H288.22V696.5ZM288.72 696V720.72H264V696H288.72Z" fill="white"/>
<path d="M360.72 696H336V720.72H360.72V696Z" fill="white"/>
<path fill-rule="evenodd" clip-rule="evenodd" d="M360.22 696.5H336.5V720.22H360.22V696.5ZM360.72 696V720.72H336V696H360.72Z" fill="white"/>
<path d="M408.72 696H384V720.72H408.72V696Z" fill="white"/>
<path fill-rule="evenodd" clip-rule="evenodd" d="M408.22 696.5H384.5V720.22H408.22V696.5ZM408.72 696V720.72H384V696H408.72Z" fill="white"/>
<path d="M504.72 696H480V720.72H504.72V696Z" fill="white"/>
<path fill-rule="evenodd" clip-rule="evenodd" d="M504.22 696.5H480.5V720.22H504.22V696.5ZM504.72 696V720.72H480V696H504.72Z" fill="white"/>
<path d="M576.72 696H552V720.72H576.72V696Z" fill="white"/>
<path fill-rule="evenodd" clip-rule="evenodd" d="M576.22 696.5H552.5V720.22H576.22V696.5ZM576.72 696V720.72H552V696H576.72Z" fill="white"/>
<path d="M624.72 696H600V720.72H624.72V696Z" fill="white"/>
<path fill-rule="evenodd" clip-rule="evenodd" d="M624.22 696.5H600.5V720.22H624.22V696.5ZM624.72 696V720.72H600V696H624.72Z" fill="white"/>
<path d="M696.72 696H672V720.72H696.72V696Z" fill="white"/>
<path fill-rule="evenodd" clip-rule="evenodd" d="M696.22 696.5H672.5V720.22H696.22V696.5ZM696.72 696V720.72H672V696H696.72Z" fill="white"/>
<path d="M720.72 696H696V720.72H720.72V696Z" fill="white"/>
<path fill-rule="evenodd" clip-rule="evenodd" d="M720.22 696.5H696.5V720.22H720.22V696.5ZM720.72 696V720.72H696V696H720.72Z" fill="white"/>
<path d="M768.72 696H744V720.72H768.72V696Z" fill="white"/>
<path fill-rule="evenodd" clip-rule="evenodd" d="M768.22 696.5H744.5V720.22H768.22V696.5ZM768.72 696V720.72H744V696H768.72Z" fill="white"/>
<path d="M216.72 720H192V744.72H216.72V720Z" fill="white"/>
<path fill-rule="evenodd" clip-rule="evenodd" d="M216.22 720.5H192.5V744.22H216.22V720.5ZM216.72 720V744.72H192V720H216.72Z" fill="white"/>
<path d="M288.72 720H264V744.72H288.72V720Z" fill="white"/>
<path fill-rule="evenodd" clip-rule="evenodd" d="M288.22 720.5H264.5V744.22H288.22V720.5ZM288.72 720V744.72H264V720H288.72Z" fill="white"/>
<path d="M312.72 720H288V744.72H312.72V720Z" fill="white"/>
<path fill-rule="evenodd" clip-rule="evenodd" d="M312.22 720.5H288.5V744.22H312.22V720.5ZM312.72 720V744.72H288V720H312.72Z" fill="white"/>
<path d="M336.72 720H312V744.72H336.72V720Z" fill="white"/>
<path fill-rule="evenodd" clip-rule="evenodd" d="M336.22 720.5H312.5V744.22H336.22V720.5ZM336.72 720V744.72H312V720H336.72Z" fill="white"/>
<path d="M384.72 720H360V744.72H384.72V720Z" fill="white"/>
<path fill-rule="evenodd" clip-rule="evenodd" d="M384.22 720.5H360.5V744.22H384.22V720.5ZM384.72 720V744.72H360V720H384.72Z" fill="white"/>
<path d="M504.72 720H480V744.72H504.72V720Z" fill="white"/>
<path fill-rule="evenodd" clip-rule="evenodd" d="M504.22 720.5H480.5V744.22H504.22V720.5ZM504.72 720V744.72H480V720H504.72Z" fill="white"/>
<path d="M552.72 720H528V744.72H552.72V720Z" fill="white"/>
<path fill-rule="evenodd" clip-rule="evenodd" d="M552.22 720.5H528.5V744.22H552.22V720.5ZM552.72 720V744.72H528V720H552.72Z" fill="white"/>
<path d="M600.72 720H576V744.72H600.72V720Z" fill="white"/>
<path fill-rule="evenodd" clip-rule="evenodd" d="M600.22 720.5H576.5V744.22H600.22V720.5ZM600.72 720V744.72H576V720H600.72Z" fill="white"/>
<path d="M624.72 720H600V744.72H624.72V720Z" fill="white"/>
<path fill-rule="evenodd" clip-rule="evenodd" d="M624.22 720.5H600.5V744.22H624.22V720.5ZM624.72 720V744.72H600V720H624.72Z" fill="white"/>
<path d="M648.72 720H624V744.72H648.72V720Z" fill="white"/>
<path fill-rule="evenodd" clip-rule="evenodd" d="M648.22 720.5H624.5V744.22H648.22V720.5ZM648.72 720V744.72H624V720H648.72Z" fill="white"/>
<path d="M288.72 744H264V768.72H288.72V744Z" fill="white"/>
<path fill-rule="evenodd" clip-rule="evenodd" d="M288.22 744.5H264.5V768.22H288.22V744.5ZM288.72 744V768.72H264V744H288.72Z" fill="white"/>
<path d="M408.72 744H384V768.72H408.72V744Z" fill="white"/>
<path fill-rule="evenodd" clip-rule="evenodd" d="M408.22 744.5H384.5V768.22H408.22V744.5ZM408.72 744V768.72H384V744H408.72Z" fill="white"/>
<path d="M432.72 744H408V768.72H432.72V744Z" fill="white"/>
<path fill-rule="evenodd" clip-rule="evenodd" d="M432.22 744.5H408.5V768.22H432.22V744.5ZM432.72 744V768.72H408V744H432.72Z" fill="white"/>
<path d="M456.72 744H432V768.72H456.72V744Z" fill="white"/>
<path fill-rule="evenodd" clip-rule="evenodd" d="M456.22 744.5H432.5V768.22H456.22V744.5ZM456.72 744V768.72H432V744H456.72Z" fill="white"/>
<path d="M528.72 744H504V768.72H528.72V744Z" fill="white"/>
<path fill-rule="evenodd" clip-rule="evenodd" d="M528.22 744.5H504.5V768.22H528.22V744.5ZM528.72 744V768.72H504V744H528.72Z" fill="white"/>
<path d="M552.72 744H528V768.72H552.72V744Z" fill="white"/>
<path fill-rule="evenodd" clip-rule="evenodd" d="M552.22 744.5H528.5V768.22H552.22V744.5ZM552.72 744V768.72H528V744H552.72Z" fill="white"/>
<path d="M624.72 744H600V768.72H624.72V744Z" fill="white"/>
<path fill-rule="evenodd" clip-rule="evenodd" d="M624.22 744.5H600.5V768.22H624.22V744.5ZM624.72 744V768.72H600V744H624.72Z" fill="white"/>
<path d="M648.72 744H624V768.72H648.72V744Z" fill="white"/>
<path fill-rule="evenodd" clip-rule="evenodd" d="M648.22 744.5H624.5V768.22H648.22V744.5ZM648.72 744V768.72H624V744H648.72Z" fill="white"/>
<path d="M672.72 744H648V768.72H672.72V744Z" fill="white"/>
<path fill-rule="evenodd" clip-rule="evenodd" d="M672.22 744.5H648.5V768.22H672.22V744.5ZM672.72 744V768.72H648V744H672.72Z" fill="white"/>
<path d="M720.72 744H696V768.72H720.72V744Z" fill="white"/>
<path fill-rule="evenodd" clip-rule="evenodd" d="M720.22 744.5H696.5V768.22H720.22V744.5ZM720.72 744V768.72H696V744H720.72Z" fill="white"/>
<path d="M240.72 768H216V792.72H240.72V768Z" fill="white"/>
<path fill-rule="evenodd" clip-rule="evenodd" d="M240.22 768.5H216.5V792.22H240.22V768.5ZM240.72 768V792.72H216V768H240.72Z" fill="white"/>
<path d="M288.72 768H264V792.72H288.72V768Z" fill="white"/>
<path fill-rule="evenodd" clip-rule="evenodd" d="M288.22 768.5H264.5V792.22H288.22V768.5ZM288.72 768V792.72H264V768H288.72Z" fill="white"/>
<path d="M312.72 768H288V792.72H312.72V768Z" fill="white"/>
<path fill-rule="evenodd" clip-rule="evenodd" d="M312.22 768.5H288.5V792.22H312.22V768.5ZM312.72 768V792.72H288V768H312.72Z" fill="white"/>
<path d="M360.72 768H336V792.72H360.72V768Z" fill="white"/>
<path fill-rule="evenodd" clip-rule="evenodd" d="M360.22 768.5H336.5V792.22H360.22V768.5ZM360.72 768V792.72H336V768H360.72Z" fill="white"/>
<path d="M408.72 768H384V792.72H408.72V768Z" fill="white"/>
<path fill-rule="evenodd" clip-rule="evenodd" d="M408.22 768.5H384.5V792.22H408.22V768.5ZM408.72 768V792.72H384V768H408.72Z" fill="white"/>
<path d="M504.72 768H480V792.72H504.72V768Z" fill="white"/>
<path fill-rule="evenodd" clip-rule="evenodd" d="M504.22 768.5H480.5V792.22H504.22V768.5ZM504.72 768V792.72H480V768H504.72Z" fill="white"/>
<path d="M552.72 768H528V792.72H552.72V768Z" fill="white"/>
<path fill-rule="evenodd" clip-rule="evenodd" d="M552.22 768.5H528.5V792.22H552.22V768.5ZM552.72 768V792.72H528V768H552.72Z" fill="white"/>
<path d="M576.72 768H552V792.72H576.72V768Z" fill="white"/>
<path fill-rule="evenodd" clip-rule="evenodd" d="M576.22 768.5H552.5V792.22H576.22V768.5ZM576.72 768V792.72H552V768H576.72Z" fill="white"/>
<path d="M600.72 768H576V792.72H600.72V768Z" fill="white"/>
<path fill-rule="evenodd" clip-rule="evenodd" d="M600.22 768.5H576.5V792.22H600.22V768.5ZM600.72 768V792.72H576V768H600.72Z" fill="white"/>
<path d="M624.72 768H600V792.72H624.72V768Z" fill="white"/>
<path fill-rule="evenodd" clip-rule="evenodd" d="M624.22 768.5H600.5V792.22H624.22V768.5ZM624.72 768V792.72H600V768H624.72Z" fill="white"/>
<path d="M648.72 768H624V792.72H648.72V768Z" fill="white"/>
<path fill-rule="evenodd" clip-rule="evenodd" d="M648.22 768.5H624.5V792.22H648.22V768.5ZM648.72 768V792.72H624V768H648.72Z" fill="white"/>
<path d="M744.72 768H720V792.72H744.72V768Z" fill="white"/>
<path fill-rule="evenodd" clip-rule="evenodd" d="M744.22 768.5H720.5V792.22H744.22V768.5ZM744.72 768V792.72H720V768H744.72Z" fill="white"/>
<path d="M768.72 768H744V792.72H768.72V768Z" fill="white"/>
<path fill-rule="evenodd" clip-rule="evenodd" d="M768.22 768.5H744.5V792.22H768.22V768.5ZM768.72 768V792.72H744V768H768.72Z" fill="white"/>
<path d="M0 0V168H168V0H0ZM144 144H24V24H144V144Z" fill="white"/>
<path fill-rule="evenodd" clip-rule="evenodd" d="M144.5 144.5H23.5V23.5H144.5V144.5ZM0 168V0H168V168H0ZM167.5 167.5V0.5H0.5V167.5H167.5ZM144 144V24H24V144H144Z" fill="white"/>
<path d="M624 0V168H792V0H624ZM768 144H648V24H768V144Z" fill="white"/>
<path fill-rule="evenodd" clip-rule="evenodd" d="M768.5 144.5H647.5V23.5H768.5V144.5ZM624 168V0H792V168H624ZM791.5 167.5V0.5H624.5V167.5H791.5ZM768 144V24H648V144H768Z" fill="white"/>
<path d="M0 624V792H168V624H0ZM144 768H24V648H144V768Z" fill="white"/>
<path fill-rule="evenodd" clip-rule="evenodd" d="M144.5 768.5H23.5V647.5H144.5V768.5ZM0 792V624H168V792H0ZM167.5 791.5V624.5H0.5V791.5H167.5ZM144 768V648H24V768H144Z" fill="white"/>
<path d="M120 48H48V120H120V48Z" fill="white"/>
<path fill-rule="evenodd" clip-rule="evenodd" d="M119.5 48.5H48.5V119.5H119.5V48.5ZM120 48V120H48V48H120Z" fill="white"/>
<path d="M744 48H672V120H744V48Z" fill="white"/>
<path fill-rule="evenodd" clip-rule="evenodd" d="M743.5 48.5H672.5V119.5H743.5V48.5ZM744 48V120H672V48H744Z" fill="white"/>
<path d="M120 672H48V744H120V672Z" fill="white"/>
<path fill-rule="evenodd" clip-rule="evenodd" d="M119.5 672.5H48.5V743.5H119.5V672.5ZM120 672V744H48V672H120Z" fill="white"/>
</svg>
